<?xml version="1.0" encoding="utf-8" standalone="no"?>
<!DOCTYPE svg PUBLIC "-//W3C//DTD SVG 1.1//EN"
  "http://www.w3.org/Graphics/SVG/1.1/DTD/svg11.dtd">
<svg height="576pt" version="1.1" viewBox="0 0 720 576" width="720pt" xmlns="http://www.w3.org/2000/svg" xmlns:xlink="http://www.w3.org/1999/xlink">
 <metadata>
  <rdf:RDF xmlns:cc="http://creativecommons.org/ns#" xmlns:dc="http://purl.org/dc/elements/1.1/" xmlns:rdf="http://www.w3.org/1999/02/22-rdf-syntax-ns#">
   <cc:Work>
    <dc:type rdf:resource="http://purl.org/dc/dcmitype/StillImage"/>
    <dc:date>2021-06-17T22:57:48.147808</dc:date>
    <dc:format>image/svg+xml</dc:format>
    <dc:creator>
     <cc:Agent>
      <dc:title>Matplotlib v3.4.2, https://matplotlib.org/</dc:title>
     </cc:Agent>
    </dc:creator>
   </cc:Work>
  </rdf:RDF>
 </metadata>
 <defs>
  <style type="text/css">*{stroke-linecap:butt;stroke-linejoin:round;}</style>
 </defs>
 <g id="figure_1">
  <g id="patch_1">
   <path d="M 0 576 
L 720 576 
L 720 0 
L 0 0 
z
" style="fill:#ffffff;"/>
  </g>
  <g id="axes_1">
   <g id="patch_2">
    <path d="M 365.45184 117.02016 
C 337.456375 117.02016 309.854432 123.646801 284.91029 136.356476 
C 259.966149 149.066152 238.38107 167.501552 221.925749 190.150359 
C 205.470429 212.799167 194.607479 239.02465 190.228025 266.675444 
C 185.848571 294.326239 188.075733 322.624991 196.72681 349.25026 
C 205.377886 375.875528 220.209667 400.078791 240.005452 419.874572 
C 259.801237 439.670353 284.004502 454.502129 310.629772 463.153201 
C 337.255042 471.804272 365.553795 474.031429 393.204589 469.651969 
C 420.855382 465.27251 447.080863 454.409556 469.729668 437.954231 
L 401.94908 344.662285 
C 394.021998 350.421649 384.84308 354.223683 375.165302 355.756493 
C 365.487524 357.289304 355.582961 356.509799 346.264116 353.481924 
C 336.945272 350.454049 328.474129 345.262927 321.545604 338.334404 
C 314.61708 331.405881 309.425956 322.934739 306.398079 313.615895 
C 303.370203 304.297051 302.590696 294.392487 304.123505 284.714709 
C 305.656314 275.036932 309.458346 265.858012 315.217708 257.93093 
C 320.97707 250.003847 328.531848 243.551457 337.262298 239.103071 
C 345.992747 234.654684 355.653427 232.33536 365.45184 232.33536 
L 365.45184 117.02016 
z
" style="fill:#092436;opacity:0.5;stroke:#092436;stroke-linejoin:miter;"/>
   </g>
   <g id="patch_3">
    <path d="M 469.729668 437.954231 
C 500.034689 415.936338 522.6014 384.875915 534.176883 349.25022 
C 545.752367 313.624525 545.75236 275.231735 534.176865 239.606045 
C 522.60137 203.980354 500.034649 172.919938 469.729621 150.902055 
C 439.424592 128.884171 402.910877 117.020153 365.451807 117.02016 
L 365.451828 232.33536 
C 378.562503 232.335358 391.342303 236.487764 401.949063 244.194023 
C 412.555823 251.900282 420.454175 262.771428 424.505599 275.24042 
C 428.557022 287.709411 428.557024 301.146888 424.505605 313.615881 
C 420.454186 326.084874 412.555837 336.956022 401.94908 344.662285 
L 469.729668 437.954231 
z
" style="fill:#344c0e;opacity:0.5;stroke:#344c0e;stroke-linejoin:miter;"/>
   </g>
   <g id="patch_4">
    <path d="M 369 113.472 
C 341.004535 113.472 313.402592 120.098641 288.45845 132.808316 
C 263.514309 145.517992 241.92923 163.953392 225.473909 186.602199 
C 209.018589 209.251007 198.155639 235.47649 193.776185 263.127284 
C 189.396731 290.778079 191.623893 319.076831 200.27497 345.7021 
C 208.926046 372.327368 223.757827 396.530631 243.553612 416.326412 
C 263.349397 436.122193 287.552662 450.953969 314.177932 459.605041 
C 340.803202 468.256112 369.101955 470.483269 396.752749 466.103809 
C 424.403542 461.72435 450.629023 450.861396 473.277828 434.406071 
L 405.49724 341.114125 
C 397.570158 346.873489 388.39124 350.675523 378.713462 352.208333 
C 369.035684 353.741144 359.131121 352.961639 349.812276 349.933764 
C 340.493432 346.905889 332.022289 341.714767 325.093764 334.786244 
C 318.16524 327.857721 312.974116 319.386579 309.946239 310.067735 
C 306.918363 300.748891 306.138856 290.844327 307.671665 281.166549 
C 309.204474 271.488772 313.006506 262.309852 318.765868 254.38277 
C 324.52523 246.455687 332.080008 240.003297 340.810458 235.554911 
C 349.540907 231.106524 359.201587 228.7872 369 228.7872 
L 369 113.472 
z
" style="fill:#1f77b4;"/>
   </g>
   <g id="patch_5">
    <path d="M 473.277828 434.406071 
C 503.582849 412.388178 526.14956 381.327755 537.725043 345.70206 
C 549.300527 310.076365 549.30052 271.683575 537.725025 236.057885 
C 526.14953 200.432194 503.582809 169.371778 473.277781 147.353895 
C 442.972752 125.336011 406.459037 113.471993 368.999967 113.472 
L 368.999988 228.7872 
C 382.110663 228.787198 394.890463 232.939604 405.497223 240.645863 
C 416.103983 248.352122 424.002335 259.223268 428.053759 271.69226 
C 432.105182 284.161251 432.105184 297.598728 428.053765 310.067721 
C 424.002346 322.536714 416.103997 333.407862 405.49724 341.114125 
L 473.277828 434.406071 
z
" style="fill:#adff2f;"/>
   </g>
   <g id="matplotlib.axis_1"/>
   <g id="matplotlib.axis_2"/>
   <g id="text_1">
    <!-- KK -->
    <g transform="translate(161.706842 355.047435)scale(0.14 -0.14)">
     <defs>
      <path d="M 588 4666 
L 1791 4666 
L 1791 2963 
L 3525 4666 
L 4922 4666 
L 2675 2456 
L 5153 0 
L 3647 0 
L 1791 1838 
L 1791 0 
L 588 0 
L 588 4666 
z
" id="DejaVuSans-Bold-4b" transform="scale(0.015625)"/>
     </defs>
     <use xlink:href="#DejaVuSans-Bold-4b"/>
     <use x="77.490234" xlink:href="#DejaVuSans-Bold-4b"/>
    </g>
   </g>
   <g id="text_2">
    <!-- 60.0% -->
    <g transform="translate(243.480451 327.636385)scale(0.14 -0.14)">
     <defs>
      <path d="M 2316 2303 
Q 2000 2303 1842 2098 
Q 1684 1894 1684 1484 
Q 1684 1075 1842 870 
Q 2000 666 2316 666 
Q 2634 666 2792 870 
Q 2950 1075 2950 1484 
Q 2950 1894 2792 2098 
Q 2634 2303 2316 2303 
z
M 3803 4544 
L 3803 3681 
Q 3506 3822 3243 3889 
Q 2981 3956 2731 3956 
Q 2194 3956 1894 3657 
Q 1594 3359 1544 2772 
Q 1750 2925 1990 3001 
Q 2231 3078 2516 3078 
Q 3231 3078 3670 2659 
Q 4109 2241 4109 1563 
Q 4109 813 3618 361 
Q 3128 -91 2303 -91 
Q 1394 -91 895 523 
Q 397 1138 397 2266 
Q 397 3422 980 4083 
Q 1563 4744 2578 4744 
Q 2900 4744 3203 4694 
Q 3506 4644 3803 4544 
z
" id="DejaVuSans-Bold-36" transform="scale(0.015625)"/>
      <path d="M 2944 2338 
Q 2944 3213 2780 3570 
Q 2616 3928 2228 3928 
Q 1841 3928 1675 3570 
Q 1509 3213 1509 2338 
Q 1509 1453 1675 1090 
Q 1841 728 2228 728 
Q 2613 728 2778 1090 
Q 2944 1453 2944 2338 
z
M 4147 2328 
Q 4147 1169 3647 539 
Q 3147 -91 2228 -91 
Q 1306 -91 806 539 
Q 306 1169 306 2328 
Q 306 3491 806 4120 
Q 1306 4750 2228 4750 
Q 3147 4750 3647 4120 
Q 4147 3491 4147 2328 
z
" id="DejaVuSans-Bold-30" transform="scale(0.015625)"/>
      <path d="M 653 1209 
L 1778 1209 
L 1778 0 
L 653 0 
L 653 1209 
z
" id="DejaVuSans-Bold-2e" transform="scale(0.015625)"/>
      <path d="M 4959 1925 
Q 4738 1925 4616 1733 
Q 4494 1541 4494 1184 
Q 4494 825 4614 633 
Q 4734 441 4959 441 
Q 5184 441 5303 633 
Q 5422 825 5422 1184 
Q 5422 1541 5301 1733 
Q 5181 1925 4959 1925 
z
M 4959 2450 
Q 5541 2450 5875 2112 
Q 6209 1775 6209 1184 
Q 6209 594 5875 251 
Q 5541 -91 4959 -91 
Q 4378 -91 4042 251 
Q 3706 594 3706 1184 
Q 3706 1772 4042 2111 
Q 4378 2450 4959 2450 
z
M 2094 -91 
L 1403 -91 
L 4319 4750 
L 5013 4750 
L 2094 -91 
z
M 1453 4750 
Q 2034 4750 2367 4411 
Q 2700 4072 2700 3481 
Q 2700 2891 2367 2550 
Q 2034 2209 1453 2209 
Q 872 2209 539 2550 
Q 206 2891 206 3481 
Q 206 4072 539 4411 
Q 872 4750 1453 4750 
z
M 1453 4225 
Q 1228 4225 1106 4031 
Q 984 3838 984 3481 
Q 984 3122 1106 2926 
Q 1228 2731 1453 2731 
Q 1678 2731 1798 2926 
Q 1919 3122 1919 3481 
Q 1919 3838 1797 4031 
Q 1675 4225 1453 4225 
z
" id="DejaVuSans-Bold-25" transform="scale(0.015625)"/>
     </defs>
     <use xlink:href="#DejaVuSans-Bold-36"/>
     <use x="69.580078" xlink:href="#DejaVuSans-Bold-30"/>
     <use x="139.160156" xlink:href="#DejaVuSans-Bold-2e"/>
     <use x="177.148438" xlink:href="#DejaVuSans-Bold-30"/>
     <use x="246.728516" xlink:href="#DejaVuSans-Bold-25"/>
    </g>
   </g>
   <g id="text_3">
    <!-- LQ -->
    <g transform="translate(554.597528 234.438798)scale(0.14 -0.14)">
     <defs>
      <path d="M 588 4666 
L 1791 4666 
L 1791 909 
L 3903 909 
L 3903 0 
L 588 0 
L 588 4666 
z
" id="DejaVuSans-Bold-4c" transform="scale(0.015625)"/>
      <path d="M 2847 -84 
L 2753 -84 
Q 1600 -84 959 553 
Q 319 1191 319 2328 
Q 319 3463 958 4106 
Q 1597 4750 2719 4750 
Q 3853 4750 4486 4112 
Q 5119 3475 5119 2328 
Q 5119 1541 4783 972 
Q 4447 403 3816 116 
L 4756 -934 
L 3609 -934 
L 2847 -84 
z
M 2719 3878 
Q 2169 3878 1866 3472 
Q 1563 3066 1563 2328 
Q 1563 1578 1859 1179 
Q 2156 781 2719 781 
Q 3272 781 3575 1187 
Q 3878 1594 3878 2328 
Q 3878 3066 3575 3472 
Q 3272 3878 2719 3878 
z
" id="DejaVuSans-Bold-51" transform="scale(0.015625)"/>
     </defs>
     <use xlink:href="#DejaVuSans-Bold-4c"/>
     <use x="63.720703" xlink:href="#DejaVuSans-Bold-51"/>
    </g>
   </g>
   <g id="text_4">
    <!-- 40.0% -->
    <g transform="translate(445.950484 261.849856)scale(0.14 -0.14)">
     <defs>
      <path d="M 2356 3675 
L 1038 1722 
L 2356 1722 
L 2356 3675 
z
M 2156 4666 
L 3494 4666 
L 3494 1722 
L 4159 1722 
L 4159 850 
L 3494 850 
L 3494 0 
L 2356 0 
L 2356 850 
L 288 850 
L 288 1881 
L 2156 4666 
z
" id="DejaVuSans-Bold-34" transform="scale(0.015625)"/>
     </defs>
     <use xlink:href="#DejaVuSans-Bold-34"/>
     <use x="69.580078" xlink:href="#DejaVuSans-Bold-30"/>
     <use x="139.160156" xlink:href="#DejaVuSans-Bold-2e"/>
     <use x="177.148438" xlink:href="#DejaVuSans-Bold-30"/>
     <use x="246.728516" xlink:href="#DejaVuSans-Bold-25"/>
    </g>
   </g>
   <g id="text_5">
    <!-- KK vs LQ, Prediction After 10 overs 2nd Innings -->
    <g transform="translate(154.08375 63.12)scale(0.16 -0.16)">
     <defs>
      <path id="DejaVuSans-Bold-20" transform="scale(0.015625)"/>
      <path d="M 97 3500 
L 1216 3500 
L 2088 1081 
L 2956 3500 
L 4078 3500 
L 2700 0 
L 1472 0 
L 97 3500 
z
" id="DejaVuSans-Bold-76" transform="scale(0.015625)"/>
      <path d="M 3272 3391 
L 3272 2541 
Q 2913 2691 2578 2766 
Q 2244 2841 1947 2841 
Q 1628 2841 1473 2761 
Q 1319 2681 1319 2516 
Q 1319 2381 1436 2309 
Q 1553 2238 1856 2203 
L 2053 2175 
Q 2913 2066 3209 1816 
Q 3506 1566 3506 1031 
Q 3506 472 3093 190 
Q 2681 -91 1863 -91 
Q 1516 -91 1145 -36 
Q 775 19 384 128 
L 384 978 
Q 719 816 1070 734 
Q 1422 653 1784 653 
Q 2113 653 2278 743 
Q 2444 834 2444 1013 
Q 2444 1163 2330 1236 
Q 2216 1309 1875 1350 
L 1678 1375 
Q 931 1469 631 1722 
Q 331 1975 331 2491 
Q 331 3047 712 3315 
Q 1094 3584 1881 3584 
Q 2191 3584 2531 3537 
Q 2872 3491 3272 3391 
z
" id="DejaVuSans-Bold-73" transform="scale(0.015625)"/>
      <path d="M 653 1209 
L 1778 1209 
L 1778 256 
L 1006 -909 
L 341 -909 
L 653 256 
L 653 1209 
z
" id="DejaVuSans-Bold-2c" transform="scale(0.015625)"/>
      <path d="M 588 4666 
L 2584 4666 
Q 3475 4666 3951 4270 
Q 4428 3875 4428 3144 
Q 4428 2409 3951 2014 
Q 3475 1619 2584 1619 
L 1791 1619 
L 1791 0 
L 588 0 
L 588 4666 
z
M 1791 3794 
L 1791 2491 
L 2456 2491 
Q 2806 2491 2997 2661 
Q 3188 2831 3188 3144 
Q 3188 3456 2997 3625 
Q 2806 3794 2456 3794 
L 1791 3794 
z
" id="DejaVuSans-Bold-50" transform="scale(0.015625)"/>
      <path d="M 3138 2547 
Q 2991 2616 2845 2648 
Q 2700 2681 2553 2681 
Q 2122 2681 1889 2404 
Q 1656 2128 1656 1613 
L 1656 0 
L 538 0 
L 538 3500 
L 1656 3500 
L 1656 2925 
Q 1872 3269 2151 3426 
Q 2431 3584 2822 3584 
Q 2878 3584 2943 3579 
Q 3009 3575 3134 3559 
L 3138 2547 
z
" id="DejaVuSans-Bold-72" transform="scale(0.015625)"/>
      <path d="M 4031 1759 
L 4031 1441 
L 1416 1441 
Q 1456 1047 1700 850 
Q 1944 653 2381 653 
Q 2734 653 3104 758 
Q 3475 863 3866 1075 
L 3866 213 
Q 3469 63 3072 -14 
Q 2675 -91 2278 -91 
Q 1328 -91 801 392 
Q 275 875 275 1747 
Q 275 2603 792 3093 
Q 1309 3584 2216 3584 
Q 3041 3584 3536 3087 
Q 4031 2591 4031 1759 
z
M 2881 2131 
Q 2881 2450 2695 2645 
Q 2509 2841 2209 2841 
Q 1884 2841 1681 2658 
Q 1478 2475 1428 2131 
L 2881 2131 
z
" id="DejaVuSans-Bold-65" transform="scale(0.015625)"/>
      <path d="M 2919 2988 
L 2919 4863 
L 4044 4863 
L 4044 0 
L 2919 0 
L 2919 506 
Q 2688 197 2409 53 
Q 2131 -91 1766 -91 
Q 1119 -91 703 423 
Q 288 938 288 1747 
Q 288 2556 703 3070 
Q 1119 3584 1766 3584 
Q 2128 3584 2408 3439 
Q 2688 3294 2919 2988 
z
M 2181 722 
Q 2541 722 2730 984 
Q 2919 1247 2919 1747 
Q 2919 2247 2730 2509 
Q 2541 2772 2181 2772 
Q 1825 2772 1636 2509 
Q 1447 2247 1447 1747 
Q 1447 1247 1636 984 
Q 1825 722 2181 722 
z
" id="DejaVuSans-Bold-64" transform="scale(0.015625)"/>
      <path d="M 538 3500 
L 1656 3500 
L 1656 0 
L 538 0 
L 538 3500 
z
M 538 4863 
L 1656 4863 
L 1656 3950 
L 538 3950 
L 538 4863 
z
" id="DejaVuSans-Bold-69" transform="scale(0.015625)"/>
      <path d="M 3366 3391 
L 3366 2478 
Q 3138 2634 2908 2709 
Q 2678 2784 2431 2784 
Q 1963 2784 1702 2511 
Q 1441 2238 1441 1747 
Q 1441 1256 1702 982 
Q 1963 709 2431 709 
Q 2694 709 2930 787 
Q 3166 866 3366 1019 
L 3366 103 
Q 3103 6 2833 -42 
Q 2563 -91 2291 -91 
Q 1344 -91 809 395 
Q 275 881 275 1747 
Q 275 2613 809 3098 
Q 1344 3584 2291 3584 
Q 2566 3584 2833 3536 
Q 3100 3488 3366 3391 
z
" id="DejaVuSans-Bold-63" transform="scale(0.015625)"/>
      <path d="M 1759 4494 
L 1759 3500 
L 2913 3500 
L 2913 2700 
L 1759 2700 
L 1759 1216 
Q 1759 972 1856 886 
Q 1953 800 2241 800 
L 2816 800 
L 2816 0 
L 1856 0 
Q 1194 0 917 276 
Q 641 553 641 1216 
L 641 2700 
L 84 2700 
L 84 3500 
L 641 3500 
L 641 4494 
L 1759 4494 
z
" id="DejaVuSans-Bold-74" transform="scale(0.015625)"/>
      <path d="M 2203 2784 
Q 1831 2784 1636 2517 
Q 1441 2250 1441 1747 
Q 1441 1244 1636 976 
Q 1831 709 2203 709 
Q 2569 709 2762 976 
Q 2956 1244 2956 1747 
Q 2956 2250 2762 2517 
Q 2569 2784 2203 2784 
z
M 2203 3584 
Q 3106 3584 3614 3096 
Q 4122 2609 4122 1747 
Q 4122 884 3614 396 
Q 3106 -91 2203 -91 
Q 1297 -91 786 396 
Q 275 884 275 1747 
Q 275 2609 786 3096 
Q 1297 3584 2203 3584 
z
" id="DejaVuSans-Bold-6f" transform="scale(0.015625)"/>
      <path d="M 4056 2131 
L 4056 0 
L 2931 0 
L 2931 347 
L 2931 1631 
Q 2931 2084 2911 2256 
Q 2891 2428 2841 2509 
Q 2775 2619 2662 2680 
Q 2550 2741 2406 2741 
Q 2056 2741 1856 2470 
Q 1656 2200 1656 1722 
L 1656 0 
L 538 0 
L 538 3500 
L 1656 3500 
L 1656 2988 
Q 1909 3294 2193 3439 
Q 2478 3584 2822 3584 
Q 3428 3584 3742 3212 
Q 4056 2841 4056 2131 
z
" id="DejaVuSans-Bold-6e" transform="scale(0.015625)"/>
      <path d="M 3419 850 
L 1538 850 
L 1241 0 
L 31 0 
L 1759 4666 
L 3194 4666 
L 4922 0 
L 3713 0 
L 3419 850 
z
M 1838 1716 
L 3116 1716 
L 2478 3572 
L 1838 1716 
z
" id="DejaVuSans-Bold-41" transform="scale(0.015625)"/>
      <path d="M 2841 4863 
L 2841 4128 
L 2222 4128 
Q 1984 4128 1890 4042 
Q 1797 3956 1797 3744 
L 1797 3500 
L 2753 3500 
L 2753 2700 
L 1797 2700 
L 1797 0 
L 678 0 
L 678 2700 
L 122 2700 
L 122 3500 
L 678 3500 
L 678 3744 
Q 678 4316 997 4589 
Q 1316 4863 1984 4863 
L 2841 4863 
z
" id="DejaVuSans-Bold-66" transform="scale(0.015625)"/>
      <path d="M 750 831 
L 1813 831 
L 1813 3847 
L 722 3622 
L 722 4441 
L 1806 4666 
L 2950 4666 
L 2950 831 
L 4013 831 
L 4013 0 
L 750 0 
L 750 831 
z
" id="DejaVuSans-Bold-31" transform="scale(0.015625)"/>
      <path d="M 1844 884 
L 3897 884 
L 3897 0 
L 506 0 
L 506 884 
L 2209 2388 
Q 2438 2594 2547 2791 
Q 2656 2988 2656 3200 
Q 2656 3528 2436 3728 
Q 2216 3928 1850 3928 
Q 1569 3928 1234 3808 
Q 900 3688 519 3450 
L 519 4475 
Q 925 4609 1322 4679 
Q 1719 4750 2100 4750 
Q 2938 4750 3402 4381 
Q 3866 4013 3866 3353 
Q 3866 2972 3669 2642 
Q 3472 2313 2841 1759 
L 1844 884 
z
" id="DejaVuSans-Bold-32" transform="scale(0.015625)"/>
      <path d="M 588 4666 
L 1791 4666 
L 1791 0 
L 588 0 
L 588 4666 
z
" id="DejaVuSans-Bold-49" transform="scale(0.015625)"/>
      <path d="M 2919 594 
Q 2688 288 2409 144 
Q 2131 0 1766 0 
Q 1125 0 706 504 
Q 288 1009 288 1791 
Q 288 2575 706 3076 
Q 1125 3578 1766 3578 
Q 2131 3578 2409 3434 
Q 2688 3291 2919 2981 
L 2919 3500 
L 4044 3500 
L 4044 353 
Q 4044 -491 3511 -936 
Q 2978 -1381 1966 -1381 
Q 1638 -1381 1331 -1331 
Q 1025 -1281 716 -1178 
L 716 -306 
Q 1009 -475 1290 -558 
Q 1572 -641 1856 -641 
Q 2406 -641 2662 -400 
Q 2919 -159 2919 353 
L 2919 594 
z
M 2181 2772 
Q 1834 2772 1640 2515 
Q 1447 2259 1447 1791 
Q 1447 1309 1634 1061 
Q 1822 813 2181 813 
Q 2531 813 2725 1069 
Q 2919 1325 2919 1791 
Q 2919 2259 2725 2515 
Q 2531 2772 2181 2772 
z
" id="DejaVuSans-Bold-67" transform="scale(0.015625)"/>
     </defs>
     <use xlink:href="#DejaVuSans-Bold-4b"/>
     <use x="77.490234" xlink:href="#DejaVuSans-Bold-4b"/>
     <use x="154.980469" xlink:href="#DejaVuSans-Bold-20"/>
     <use x="189.794922" xlink:href="#DejaVuSans-Bold-76"/>
     <use x="254.980469" xlink:href="#DejaVuSans-Bold-73"/>
     <use x="314.501953" xlink:href="#DejaVuSans-Bold-20"/>
     <use x="349.316406" xlink:href="#DejaVuSans-Bold-4c"/>
     <use x="413.037109" xlink:href="#DejaVuSans-Bold-51"/>
     <use x="498.046875" xlink:href="#DejaVuSans-Bold-2c"/>
     <use x="536.035156" xlink:href="#DejaVuSans-Bold-20"/>
     <use x="570.849609" xlink:href="#DejaVuSans-Bold-50"/>
     <use x="644.140625" xlink:href="#DejaVuSans-Bold-72"/>
     <use x="693.457031" xlink:href="#DejaVuSans-Bold-65"/>
     <use x="761.279297" xlink:href="#DejaVuSans-Bold-64"/>
     <use x="832.861328" xlink:href="#DejaVuSans-Bold-69"/>
     <use x="867.138672" xlink:href="#DejaVuSans-Bold-63"/>
     <use x="926.416016" xlink:href="#DejaVuSans-Bold-74"/>
     <use x="974.21875" xlink:href="#DejaVuSans-Bold-69"/>
     <use x="1008.496094" xlink:href="#DejaVuSans-Bold-6f"/>
     <use x="1077.197266" xlink:href="#DejaVuSans-Bold-6e"/>
     <use x="1148.388672" xlink:href="#DejaVuSans-Bold-20"/>
     <use x="1183.203125" xlink:href="#DejaVuSans-Bold-41"/>
     <use x="1260.595703" xlink:href="#DejaVuSans-Bold-66"/>
     <use x="1304.101562" xlink:href="#DejaVuSans-Bold-74"/>
     <use x="1351.904297" xlink:href="#DejaVuSans-Bold-65"/>
     <use x="1419.726562" xlink:href="#DejaVuSans-Bold-72"/>
     <use x="1469.042969" xlink:href="#DejaVuSans-Bold-20"/>
     <use x="1503.857422" xlink:href="#DejaVuSans-Bold-31"/>
     <use x="1573.4375" xlink:href="#DejaVuSans-Bold-30"/>
     <use x="1643.017578" xlink:href="#DejaVuSans-Bold-20"/>
     <use x="1677.832031" xlink:href="#DejaVuSans-Bold-6f"/>
     <use x="1746.533203" xlink:href="#DejaVuSans-Bold-76"/>
     <use x="1811.71875" xlink:href="#DejaVuSans-Bold-65"/>
     <use x="1879.541016" xlink:href="#DejaVuSans-Bold-72"/>
     <use x="1928.857422" xlink:href="#DejaVuSans-Bold-73"/>
     <use x="1988.378906" xlink:href="#DejaVuSans-Bold-20"/>
     <use x="2023.193359" xlink:href="#DejaVuSans-Bold-32"/>
     <use x="2092.773438" xlink:href="#DejaVuSans-Bold-6e"/>
     <use x="2163.964844" xlink:href="#DejaVuSans-Bold-64"/>
     <use x="2235.546875" xlink:href="#DejaVuSans-Bold-20"/>
     <use x="2270.361328" xlink:href="#DejaVuSans-Bold-49"/>
     <use x="2307.568359" xlink:href="#DejaVuSans-Bold-6e"/>
     <use x="2378.759766" xlink:href="#DejaVuSans-Bold-6e"/>
     <use x="2449.951172" xlink:href="#DejaVuSans-Bold-69"/>
     <use x="2484.228516" xlink:href="#DejaVuSans-Bold-6e"/>
     <use x="2555.419922" xlink:href="#DejaVuSans-Bold-67"/>
     <use x="2627.001953" xlink:href="#DejaVuSans-Bold-73"/>
    </g>
   </g>
  </g>
 </g>
</svg>
