<?xml version="1.0" encoding="utf-8" standalone="no"?>
<!DOCTYPE svg PUBLIC "-//W3C//DTD SVG 1.1//EN"
  "http://www.w3.org/Graphics/SVG/1.1/DTD/svg11.dtd">
<svg height="576pt" version="1.1" viewBox="0 0 720 576" width="720pt" xmlns="http://www.w3.org/2000/svg" xmlns:xlink="http://www.w3.org/1999/xlink">
 <metadata>
  <rdf:RDF xmlns:cc="http://creativecommons.org/ns#" xmlns:dc="http://purl.org/dc/elements/1.1/" xmlns:rdf="http://www.w3.org/1999/02/22-rdf-syntax-ns#">
   <cc:Work>
    <dc:type rdf:resource="http://purl.org/dc/dcmitype/StillImage"/>
    <dc:date>2021-06-17T23:23:19.022469</dc:date>
    <dc:format>image/svg+xml</dc:format>
    <dc:creator>
     <cc:Agent>
      <dc:title>Matplotlib v3.4.2, https://matplotlib.org/</dc:title>
     </cc:Agent>
    </dc:creator>
   </cc:Work>
  </rdf:RDF>
 </metadata>
 <defs>
  <style type="text/css">*{stroke-linecap:butt;stroke-linejoin:round;}</style>
 </defs>
 <g id="figure_1">
  <g id="patch_1">
   <path d="M 0 576 
L 720 576 
L 720 0 
L 0 0 
z
" style="fill:#ffffff;"/>
  </g>
  <g id="axes_1">
   <g id="patch_2">
    <path d="M 365.45184 117.02016 
C 346.835601 117.02016 328.334847 119.950392 310.629752 125.703126 
C 292.924657 131.45586 276.234886 139.959723 261.174033 150.902074 
C 246.113179 161.844425 232.868102 175.089502 221.925752 190.150356 
C 210.983401 205.21121 202.479538 221.900981 196.726805 239.606076 
C 190.974071 257.311172 188.04384 275.811925 188.04384 294.428164 
C 188.04384 313.044403 190.974072 331.545157 196.726807 349.250252 
C 202.479542 366.955347 210.983405 383.645118 221.925756 398.705971 
C 232.868108 413.766824 246.113185 427.011901 261.174039 437.954251 
C 276.234893 448.896601 292.924665 457.400463 310.62976 463.153197 
C 328.334856 468.90593 346.835609 471.836161 365.451848 471.83616 
C 384.068087 471.836159 402.568841 468.905927 420.273936 463.153192 
C 437.979031 457.400457 454.668801 448.896593 469.729654 437.954241 
C 484.790507 427.01189 498.035584 413.766812 508.977933 398.705957 
C 519.920283 383.645103 528.424145 366.955331 534.176878 349.250236 
C 539.929611 331.54514 542.859841 313.044386 542.85984 294.428148 
C 542.859839 275.811909 539.929606 257.311155 534.17687 239.60606 
L 424.505601 275.240425 
C 426.519058 281.437208 427.54464 287.912472 427.54464 294.428156 
C 427.54464 300.943839 426.51906 307.419103 424.505603 313.615887 
C 422.492147 319.81267 419.515795 325.65409 415.685973 330.925389 
C 411.85615 336.196688 407.220373 340.832465 401.949075 344.662288 
C 396.677776 348.492111 390.836357 351.468464 384.639573 353.481921 
C 378.44279 355.495378 371.967526 356.52096 365.451843 356.52096 
C 358.936159 356.52096 352.460895 355.49538 346.264112 353.481923 
C 340.067329 351.468466 334.225909 348.492114 328.95461 344.662292 
C 323.683311 340.832469 319.047534 336.196692 315.217711 330.925394 
C 311.387888 325.654095 308.411536 319.812675 306.398078 313.615892 
C 304.384621 307.419109 303.35904 300.943845 303.35904 294.428161 
C 303.35904 287.912478 304.384621 281.437214 306.398078 275.240431 
C 308.411534 269.043647 311.387886 263.202227 315.217709 257.930929 
C 319.047532 252.65963 323.683309 248.023853 328.954607 244.19403 
C 334.225906 240.364207 340.067326 237.387855 346.264109 235.374398 
C 352.460893 233.360941 358.936156 232.33536 365.45184 232.33536 
L 365.45184 117.02016 
z
" style="fill:#092436;opacity:0.5;stroke:#092436;stroke-linejoin:miter;"/>
   </g>
   <g id="patch_3">
    <path d="M 534.17687 239.60606 
C 522.601378 203.980369 500.03466 172.919951 469.729634 150.902064 
C 439.424608 128.884178 402.910894 117.020156 365.451823 117.02016 
L 365.451834 232.33536 
C 378.562509 232.335359 391.342309 236.487766 401.949068 244.194026 
C 412.555827 251.900287 420.454178 262.771433 424.505601 275.240425 
L 534.17687 239.60606 
z
" style="fill:#344c0e;opacity:0.5;stroke:#344c0e;stroke-linejoin:miter;"/>
   </g>
   <g id="patch_4">
    <path d="M 369 113.472 
C 350.383761 113.472 331.883007 116.402232 314.177912 122.154966 
C 296.472817 127.9077 279.783046 136.411563 264.722193 147.353914 
C 249.661339 158.296265 236.416262 171.541342 225.473912 186.602196 
C 214.531561 201.66305 206.027698 218.352821 200.274965 236.057916 
C 194.522231 253.763012 191.592 272.263765 191.592 290.880004 
C 191.592 309.496243 194.522232 327.996997 200.274967 345.702092 
C 206.027702 363.407187 214.531565 380.096958 225.473916 395.157811 
C 236.416268 410.218664 249.661345 423.463741 264.722199 434.406091 
C 279.783053 445.348441 296.472825 453.852303 314.17792 459.605037 
C 331.883016 465.35777 350.383769 468.288001 369.000008 468.288 
C 387.616247 468.287999 406.117001 465.357767 423.822096 459.605032 
C 441.527191 453.852297 458.216961 445.348433 473.277814 434.406081 
C 488.338667 423.46373 501.583744 410.218652 512.526093 395.157797 
C 523.468443 380.096943 531.972305 363.407171 537.725038 345.702076 
C 543.477771 327.99698 546.408001 309.496226 546.408 290.879988 
C 546.407999 272.263749 543.477766 253.762995 537.72503 236.0579 
L 428.053761 271.692265 
C 430.067218 277.889048 431.0928 284.364312 431.0928 290.879996 
C 431.0928 297.395679 430.06722 303.870943 428.053763 310.067727 
C 426.040307 316.26451 423.063955 322.10593 419.234133 327.377229 
C 415.40431 332.648528 410.768533 337.284305 405.497235 341.114128 
C 400.225936 344.943951 394.384517 347.920304 388.187733 349.933761 
C 381.99095 351.947218 375.515686 352.9728 369.000003 352.9728 
C 362.484319 352.9728 356.009055 351.94722 349.812272 349.933763 
C 343.615489 347.920306 337.774069 344.943954 332.50277 341.114132 
C 327.231471 337.284309 322.595694 332.648532 318.765871 327.377234 
C 314.936048 322.105935 311.959696 316.264515 309.946238 310.067732 
C 307.932781 303.870949 306.9072 297.395685 306.9072 290.880001 
C 306.9072 284.364318 307.932781 277.889054 309.946238 271.692271 
C 311.959694 265.495487 314.936046 259.654067 318.765869 254.382769 
C 322.595692 249.11147 327.231469 244.475693 332.502767 240.64587 
C 337.774066 236.816047 343.615486 233.839695 349.812269 231.826238 
C 356.009053 229.812781 362.484316 228.7872 369 228.7872 
L 369 113.472 
z
" style="fill:#1f77b4;"/>
   </g>
   <g id="patch_5">
    <path d="M 537.72503 236.0579 
C 526.149538 200.432209 503.58282 169.371791 473.277794 147.353904 
C 442.972768 125.336018 406.459054 113.471996 368.999983 113.472 
L 368.999994 228.7872 
C 382.110669 228.787199 394.890469 232.939606 405.497228 240.645866 
C 416.103987 248.352127 424.002338 259.223273 428.053761 271.692265 
L 537.72503 236.0579 
z
" style="fill:#adff2f;"/>
   </g>
   <g id="matplotlib.axis_1"/>
   <g id="matplotlib.axis_2"/>
   <g id="text_1">
    <!-- KK -->
    <g transform="translate(232.598794 452.621825)scale(0.14 -0.14)">
     <defs>
      <path d="M 588 4666 
L 1791 4666 
L 1791 2963 
L 3525 4666 
L 4922 4666 
L 2675 2456 
L 5153 0 
L 3647 0 
L 1791 1838 
L 1791 0 
L 588 0 
L 588 4666 
z
" id="DejaVuSans-Bold-4b" transform="scale(0.015625)"/>
     </defs>
     <use xlink:href="#DejaVuSans-Bold-4b"/>
     <use x="77.490234" xlink:href="#DejaVuSans-Bold-4b"/>
    </g>
   </g>
   <g id="text_2">
    <!-- 80.0% -->
    <g transform="translate(282.148788 380.85878)scale(0.14 -0.14)">
     <defs>
      <path d="M 2228 2088 
Q 1891 2088 1709 1903 
Q 1528 1719 1528 1375 
Q 1528 1031 1709 848 
Q 1891 666 2228 666 
Q 2563 666 2741 848 
Q 2919 1031 2919 1375 
Q 2919 1722 2741 1905 
Q 2563 2088 2228 2088 
z
M 1350 2484 
Q 925 2613 709 2878 
Q 494 3144 494 3541 
Q 494 4131 934 4440 
Q 1375 4750 2228 4750 
Q 3075 4750 3515 4442 
Q 3956 4134 3956 3541 
Q 3956 3144 3739 2878 
Q 3522 2613 3097 2484 
Q 3572 2353 3814 2058 
Q 4056 1763 4056 1313 
Q 4056 619 3595 264 
Q 3134 -91 2228 -91 
Q 1319 -91 855 264 
Q 391 619 391 1313 
Q 391 1763 633 2058 
Q 875 2353 1350 2484 
z
M 1631 3419 
Q 1631 3141 1786 2991 
Q 1941 2841 2228 2841 
Q 2509 2841 2662 2991 
Q 2816 3141 2816 3419 
Q 2816 3697 2662 3845 
Q 2509 3994 2228 3994 
Q 1941 3994 1786 3844 
Q 1631 3694 1631 3419 
z
" id="DejaVuSans-Bold-38" transform="scale(0.015625)"/>
      <path d="M 2944 2338 
Q 2944 3213 2780 3570 
Q 2616 3928 2228 3928 
Q 1841 3928 1675 3570 
Q 1509 3213 1509 2338 
Q 1509 1453 1675 1090 
Q 1841 728 2228 728 
Q 2613 728 2778 1090 
Q 2944 1453 2944 2338 
z
M 4147 2328 
Q 4147 1169 3647 539 
Q 3147 -91 2228 -91 
Q 1306 -91 806 539 
Q 306 1169 306 2328 
Q 306 3491 806 4120 
Q 1306 4750 2228 4750 
Q 3147 4750 3647 4120 
Q 4147 3491 4147 2328 
z
" id="DejaVuSans-Bold-30" transform="scale(0.015625)"/>
      <path d="M 653 1209 
L 1778 1209 
L 1778 0 
L 653 0 
L 653 1209 
z
" id="DejaVuSans-Bold-2e" transform="scale(0.015625)"/>
      <path d="M 4959 1925 
Q 4738 1925 4616 1733 
Q 4494 1541 4494 1184 
Q 4494 825 4614 633 
Q 4734 441 4959 441 
Q 5184 441 5303 633 
Q 5422 825 5422 1184 
Q 5422 1541 5301 1733 
Q 5181 1925 4959 1925 
z
M 4959 2450 
Q 5541 2450 5875 2112 
Q 6209 1775 6209 1184 
Q 6209 594 5875 251 
Q 5541 -91 4959 -91 
Q 4378 -91 4042 251 
Q 3706 594 3706 1184 
Q 3706 1772 4042 2111 
Q 4378 2450 4959 2450 
z
M 2094 -91 
L 1403 -91 
L 4319 4750 
L 5013 4750 
L 2094 -91 
z
M 1453 4750 
Q 2034 4750 2367 4411 
Q 2700 4072 2700 3481 
Q 2700 2891 2367 2550 
Q 2034 2209 1453 2209 
Q 872 2209 539 2550 
Q 206 2891 206 3481 
Q 206 4072 539 4411 
Q 872 4750 1453 4750 
z
M 1453 4225 
Q 1228 4225 1106 4031 
Q 984 3838 984 3481 
Q 984 3122 1106 2926 
Q 1228 2731 1453 2731 
Q 1678 2731 1798 2926 
Q 1919 3122 1919 3481 
Q 1919 3838 1797 4031 
Q 1675 4225 1453 4225 
z
" id="DejaVuSans-Bold-25" transform="scale(0.015625)"/>
     </defs>
     <use xlink:href="#DejaVuSans-Bold-38"/>
     <use x="69.580078" xlink:href="#DejaVuSans-Bold-30"/>
     <use x="139.160156" xlink:href="#DejaVuSans-Bold-2e"/>
     <use x="177.148438" xlink:href="#DejaVuSans-Bold-30"/>
     <use x="246.728516" xlink:href="#DejaVuSans-Bold-25"/>
    </g>
   </g>
   <g id="text_3">
    <!-- LQ -->
    <g transform="translate(483.705573 136.86442)scale(0.14 -0.14)">
     <defs>
      <path d="M 588 4666 
L 1791 4666 
L 1791 909 
L 3903 909 
L 3903 0 
L 588 0 
L 588 4666 
z
" id="DejaVuSans-Bold-4c" transform="scale(0.015625)"/>
      <path d="M 2847 -84 
L 2753 -84 
Q 1600 -84 959 553 
Q 319 1191 319 2328 
Q 319 3463 958 4106 
Q 1597 4750 2719 4750 
Q 3853 4750 4486 4112 
Q 5119 3475 5119 2328 
Q 5119 1541 4783 972 
Q 4447 403 3816 116 
L 4756 -934 
L 3609 -934 
L 2847 -84 
z
M 2719 3878 
Q 2169 3878 1866 3472 
Q 1563 3066 1563 2328 
Q 1563 1578 1859 1179 
Q 2156 781 2719 781 
Q 3272 781 3575 1187 
Q 3878 1594 3878 2328 
Q 3878 3066 3575 3472 
Q 3272 3878 2719 3878 
z
" id="DejaVuSans-Bold-51" transform="scale(0.015625)"/>
     </defs>
     <use xlink:href="#DejaVuSans-Bold-4c"/>
     <use x="63.720703" xlink:href="#DejaVuSans-Bold-51"/>
    </g>
   </g>
   <g id="text_4">
    <!-- 20.0% -->
    <g transform="translate(407.282145 208.627468)scale(0.14 -0.14)">
     <defs>
      <path d="M 1844 884 
L 3897 884 
L 3897 0 
L 506 0 
L 506 884 
L 2209 2388 
Q 2438 2594 2547 2791 
Q 2656 2988 2656 3200 
Q 2656 3528 2436 3728 
Q 2216 3928 1850 3928 
Q 1569 3928 1234 3808 
Q 900 3688 519 3450 
L 519 4475 
Q 925 4609 1322 4679 
Q 1719 4750 2100 4750 
Q 2938 4750 3402 4381 
Q 3866 4013 3866 3353 
Q 3866 2972 3669 2642 
Q 3472 2313 2841 1759 
L 1844 884 
z
" id="DejaVuSans-Bold-32" transform="scale(0.015625)"/>
     </defs>
     <use xlink:href="#DejaVuSans-Bold-32"/>
     <use x="69.580078" xlink:href="#DejaVuSans-Bold-30"/>
     <use x="139.160156" xlink:href="#DejaVuSans-Bold-2e"/>
     <use x="177.148438" xlink:href="#DejaVuSans-Bold-30"/>
     <use x="246.728516" xlink:href="#DejaVuSans-Bold-25"/>
    </g>
   </g>
   <g id="text_5">
    <!-- KK vs LQ, Prediction After 15 overs 2nd Innings -->
    <g transform="translate(154.08375 63.12)scale(0.16 -0.16)">
     <defs>
      <path id="DejaVuSans-Bold-20" transform="scale(0.015625)"/>
      <path d="M 97 3500 
L 1216 3500 
L 2088 1081 
L 2956 3500 
L 4078 3500 
L 2700 0 
L 1472 0 
L 97 3500 
z
" id="DejaVuSans-Bold-76" transform="scale(0.015625)"/>
      <path d="M 3272 3391 
L 3272 2541 
Q 2913 2691 2578 2766 
Q 2244 2841 1947 2841 
Q 1628 2841 1473 2761 
Q 1319 2681 1319 2516 
Q 1319 2381 1436 2309 
Q 1553 2238 1856 2203 
L 2053 2175 
Q 2913 2066 3209 1816 
Q 3506 1566 3506 1031 
Q 3506 472 3093 190 
Q 2681 -91 1863 -91 
Q 1516 -91 1145 -36 
Q 775 19 384 128 
L 384 978 
Q 719 816 1070 734 
Q 1422 653 1784 653 
Q 2113 653 2278 743 
Q 2444 834 2444 1013 
Q 2444 1163 2330 1236 
Q 2216 1309 1875 1350 
L 1678 1375 
Q 931 1469 631 1722 
Q 331 1975 331 2491 
Q 331 3047 712 3315 
Q 1094 3584 1881 3584 
Q 2191 3584 2531 3537 
Q 2872 3491 3272 3391 
z
" id="DejaVuSans-Bold-73" transform="scale(0.015625)"/>
      <path d="M 653 1209 
L 1778 1209 
L 1778 256 
L 1006 -909 
L 341 -909 
L 653 256 
L 653 1209 
z
" id="DejaVuSans-Bold-2c" transform="scale(0.015625)"/>
      <path d="M 588 4666 
L 2584 4666 
Q 3475 4666 3951 4270 
Q 4428 3875 4428 3144 
Q 4428 2409 3951 2014 
Q 3475 1619 2584 1619 
L 1791 1619 
L 1791 0 
L 588 0 
L 588 4666 
z
M 1791 3794 
L 1791 2491 
L 2456 2491 
Q 2806 2491 2997 2661 
Q 3188 2831 3188 3144 
Q 3188 3456 2997 3625 
Q 2806 3794 2456 3794 
L 1791 3794 
z
" id="DejaVuSans-Bold-50" transform="scale(0.015625)"/>
      <path d="M 3138 2547 
Q 2991 2616 2845 2648 
Q 2700 2681 2553 2681 
Q 2122 2681 1889 2404 
Q 1656 2128 1656 1613 
L 1656 0 
L 538 0 
L 538 3500 
L 1656 3500 
L 1656 2925 
Q 1872 3269 2151 3426 
Q 2431 3584 2822 3584 
Q 2878 3584 2943 3579 
Q 3009 3575 3134 3559 
L 3138 2547 
z
" id="DejaVuSans-Bold-72" transform="scale(0.015625)"/>
      <path d="M 4031 1759 
L 4031 1441 
L 1416 1441 
Q 1456 1047 1700 850 
Q 1944 653 2381 653 
Q 2734 653 3104 758 
Q 3475 863 3866 1075 
L 3866 213 
Q 3469 63 3072 -14 
Q 2675 -91 2278 -91 
Q 1328 -91 801 392 
Q 275 875 275 1747 
Q 275 2603 792 3093 
Q 1309 3584 2216 3584 
Q 3041 3584 3536 3087 
Q 4031 2591 4031 1759 
z
M 2881 2131 
Q 2881 2450 2695 2645 
Q 2509 2841 2209 2841 
Q 1884 2841 1681 2658 
Q 1478 2475 1428 2131 
L 2881 2131 
z
" id="DejaVuSans-Bold-65" transform="scale(0.015625)"/>
      <path d="M 2919 2988 
L 2919 4863 
L 4044 4863 
L 4044 0 
L 2919 0 
L 2919 506 
Q 2688 197 2409 53 
Q 2131 -91 1766 -91 
Q 1119 -91 703 423 
Q 288 938 288 1747 
Q 288 2556 703 3070 
Q 1119 3584 1766 3584 
Q 2128 3584 2408 3439 
Q 2688 3294 2919 2988 
z
M 2181 722 
Q 2541 722 2730 984 
Q 2919 1247 2919 1747 
Q 2919 2247 2730 2509 
Q 2541 2772 2181 2772 
Q 1825 2772 1636 2509 
Q 1447 2247 1447 1747 
Q 1447 1247 1636 984 
Q 1825 722 2181 722 
z
" id="DejaVuSans-Bold-64" transform="scale(0.015625)"/>
      <path d="M 538 3500 
L 1656 3500 
L 1656 0 
L 538 0 
L 538 3500 
z
M 538 4863 
L 1656 4863 
L 1656 3950 
L 538 3950 
L 538 4863 
z
" id="DejaVuSans-Bold-69" transform="scale(0.015625)"/>
      <path d="M 3366 3391 
L 3366 2478 
Q 3138 2634 2908 2709 
Q 2678 2784 2431 2784 
Q 1963 2784 1702 2511 
Q 1441 2238 1441 1747 
Q 1441 1256 1702 982 
Q 1963 709 2431 709 
Q 2694 709 2930 787 
Q 3166 866 3366 1019 
L 3366 103 
Q 3103 6 2833 -42 
Q 2563 -91 2291 -91 
Q 1344 -91 809 395 
Q 275 881 275 1747 
Q 275 2613 809 3098 
Q 1344 3584 2291 3584 
Q 2566 3584 2833 3536 
Q 3100 3488 3366 3391 
z
" id="DejaVuSans-Bold-63" transform="scale(0.015625)"/>
      <path d="M 1759 4494 
L 1759 3500 
L 2913 3500 
L 2913 2700 
L 1759 2700 
L 1759 1216 
Q 1759 972 1856 886 
Q 1953 800 2241 800 
L 2816 800 
L 2816 0 
L 1856 0 
Q 1194 0 917 276 
Q 641 553 641 1216 
L 641 2700 
L 84 2700 
L 84 3500 
L 641 3500 
L 641 4494 
L 1759 4494 
z
" id="DejaVuSans-Bold-74" transform="scale(0.015625)"/>
      <path d="M 2203 2784 
Q 1831 2784 1636 2517 
Q 1441 2250 1441 1747 
Q 1441 1244 1636 976 
Q 1831 709 2203 709 
Q 2569 709 2762 976 
Q 2956 1244 2956 1747 
Q 2956 2250 2762 2517 
Q 2569 2784 2203 2784 
z
M 2203 3584 
Q 3106 3584 3614 3096 
Q 4122 2609 4122 1747 
Q 4122 884 3614 396 
Q 3106 -91 2203 -91 
Q 1297 -91 786 396 
Q 275 884 275 1747 
Q 275 2609 786 3096 
Q 1297 3584 2203 3584 
z
" id="DejaVuSans-Bold-6f" transform="scale(0.015625)"/>
      <path d="M 4056 2131 
L 4056 0 
L 2931 0 
L 2931 347 
L 2931 1631 
Q 2931 2084 2911 2256 
Q 2891 2428 2841 2509 
Q 2775 2619 2662 2680 
Q 2550 2741 2406 2741 
Q 2056 2741 1856 2470 
Q 1656 2200 1656 1722 
L 1656 0 
L 538 0 
L 538 3500 
L 1656 3500 
L 1656 2988 
Q 1909 3294 2193 3439 
Q 2478 3584 2822 3584 
Q 3428 3584 3742 3212 
Q 4056 2841 4056 2131 
z
" id="DejaVuSans-Bold-6e" transform="scale(0.015625)"/>
      <path d="M 3419 850 
L 1538 850 
L 1241 0 
L 31 0 
L 1759 4666 
L 3194 4666 
L 4922 0 
L 3713 0 
L 3419 850 
z
M 1838 1716 
L 3116 1716 
L 2478 3572 
L 1838 1716 
z
" id="DejaVuSans-Bold-41" transform="scale(0.015625)"/>
      <path d="M 2841 4863 
L 2841 4128 
L 2222 4128 
Q 1984 4128 1890 4042 
Q 1797 3956 1797 3744 
L 1797 3500 
L 2753 3500 
L 2753 2700 
L 1797 2700 
L 1797 0 
L 678 0 
L 678 2700 
L 122 2700 
L 122 3500 
L 678 3500 
L 678 3744 
Q 678 4316 997 4589 
Q 1316 4863 1984 4863 
L 2841 4863 
z
" id="DejaVuSans-Bold-66" transform="scale(0.015625)"/>
      <path d="M 750 831 
L 1813 831 
L 1813 3847 
L 722 3622 
L 722 4441 
L 1806 4666 
L 2950 4666 
L 2950 831 
L 4013 831 
L 4013 0 
L 750 0 
L 750 831 
z
" id="DejaVuSans-Bold-31" transform="scale(0.015625)"/>
      <path d="M 678 4666 
L 3669 4666 
L 3669 3781 
L 1638 3781 
L 1638 3059 
Q 1775 3097 1914 3117 
Q 2053 3138 2203 3138 
Q 3056 3138 3531 2711 
Q 4006 2284 4006 1522 
Q 4006 766 3489 337 
Q 2972 -91 2053 -91 
Q 1656 -91 1267 -14 
Q 878 63 494 219 
L 494 1166 
Q 875 947 1217 837 
Q 1559 728 1863 728 
Q 2300 728 2551 942 
Q 2803 1156 2803 1522 
Q 2803 1891 2551 2103 
Q 2300 2316 1863 2316 
Q 1603 2316 1309 2248 
Q 1016 2181 678 2041 
L 678 4666 
z
" id="DejaVuSans-Bold-35" transform="scale(0.015625)"/>
      <path d="M 588 4666 
L 1791 4666 
L 1791 0 
L 588 0 
L 588 4666 
z
" id="DejaVuSans-Bold-49" transform="scale(0.015625)"/>
      <path d="M 2919 594 
Q 2688 288 2409 144 
Q 2131 0 1766 0 
Q 1125 0 706 504 
Q 288 1009 288 1791 
Q 288 2575 706 3076 
Q 1125 3578 1766 3578 
Q 2131 3578 2409 3434 
Q 2688 3291 2919 2981 
L 2919 3500 
L 4044 3500 
L 4044 353 
Q 4044 -491 3511 -936 
Q 2978 -1381 1966 -1381 
Q 1638 -1381 1331 -1331 
Q 1025 -1281 716 -1178 
L 716 -306 
Q 1009 -475 1290 -558 
Q 1572 -641 1856 -641 
Q 2406 -641 2662 -400 
Q 2919 -159 2919 353 
L 2919 594 
z
M 2181 2772 
Q 1834 2772 1640 2515 
Q 1447 2259 1447 1791 
Q 1447 1309 1634 1061 
Q 1822 813 2181 813 
Q 2531 813 2725 1069 
Q 2919 1325 2919 1791 
Q 2919 2259 2725 2515 
Q 2531 2772 2181 2772 
z
" id="DejaVuSans-Bold-67" transform="scale(0.015625)"/>
     </defs>
     <use xlink:href="#DejaVuSans-Bold-4b"/>
     <use x="77.490234" xlink:href="#DejaVuSans-Bold-4b"/>
     <use x="154.980469" xlink:href="#DejaVuSans-Bold-20"/>
     <use x="189.794922" xlink:href="#DejaVuSans-Bold-76"/>
     <use x="254.980469" xlink:href="#DejaVuSans-Bold-73"/>
     <use x="314.501953" xlink:href="#DejaVuSans-Bold-20"/>
     <use x="349.316406" xlink:href="#DejaVuSans-Bold-4c"/>
     <use x="413.037109" xlink:href="#DejaVuSans-Bold-51"/>
     <use x="498.046875" xlink:href="#DejaVuSans-Bold-2c"/>
     <use x="536.035156" xlink:href="#DejaVuSans-Bold-20"/>
     <use x="570.849609" xlink:href="#DejaVuSans-Bold-50"/>
     <use x="644.140625" xlink:href="#DejaVuSans-Bold-72"/>
     <use x="693.457031" xlink:href="#DejaVuSans-Bold-65"/>
     <use x="761.279297" xlink:href="#DejaVuSans-Bold-64"/>
     <use x="832.861328" xlink:href="#DejaVuSans-Bold-69"/>
     <use x="867.138672" xlink:href="#DejaVuSans-Bold-63"/>
     <use x="926.416016" xlink:href="#DejaVuSans-Bold-74"/>
     <use x="974.21875" xlink:href="#DejaVuSans-Bold-69"/>
     <use x="1008.496094" xlink:href="#DejaVuSans-Bold-6f"/>
     <use x="1077.197266" xlink:href="#DejaVuSans-Bold-6e"/>
     <use x="1148.388672" xlink:href="#DejaVuSans-Bold-20"/>
     <use x="1183.203125" xlink:href="#DejaVuSans-Bold-41"/>
     <use x="1260.595703" xlink:href="#DejaVuSans-Bold-66"/>
     <use x="1304.101562" xlink:href="#DejaVuSans-Bold-74"/>
     <use x="1351.904297" xlink:href="#DejaVuSans-Bold-65"/>
     <use x="1419.726562" xlink:href="#DejaVuSans-Bold-72"/>
     <use x="1469.042969" xlink:href="#DejaVuSans-Bold-20"/>
     <use x="1503.857422" xlink:href="#DejaVuSans-Bold-31"/>
     <use x="1573.4375" xlink:href="#DejaVuSans-Bold-35"/>
     <use x="1643.017578" xlink:href="#DejaVuSans-Bold-20"/>
     <use x="1677.832031" xlink:href="#DejaVuSans-Bold-6f"/>
     <use x="1746.533203" xlink:href="#DejaVuSans-Bold-76"/>
     <use x="1811.71875" xlink:href="#DejaVuSans-Bold-65"/>
     <use x="1879.541016" xlink:href="#DejaVuSans-Bold-72"/>
     <use x="1928.857422" xlink:href="#DejaVuSans-Bold-73"/>
     <use x="1988.378906" xlink:href="#DejaVuSans-Bold-20"/>
     <use x="2023.193359" xlink:href="#DejaVuSans-Bold-32"/>
     <use x="2092.773438" xlink:href="#DejaVuSans-Bold-6e"/>
     <use x="2163.964844" xlink:href="#DejaVuSans-Bold-64"/>
     <use x="2235.546875" xlink:href="#DejaVuSans-Bold-20"/>
     <use x="2270.361328" xlink:href="#DejaVuSans-Bold-49"/>
     <use x="2307.568359" xlink:href="#DejaVuSans-Bold-6e"/>
     <use x="2378.759766" xlink:href="#DejaVuSans-Bold-6e"/>
     <use x="2449.951172" xlink:href="#DejaVuSans-Bold-69"/>
     <use x="2484.228516" xlink:href="#DejaVuSans-Bold-6e"/>
     <use x="2555.419922" xlink:href="#DejaVuSans-Bold-67"/>
     <use x="2627.001953" xlink:href="#DejaVuSans-Bold-73"/>
    </g>
   </g>
  </g>
 </g>
</svg>
