<?xml version="1.0" encoding="utf-8" standalone="no"?>
<!DOCTYPE svg PUBLIC "-//W3C//DTD SVG 1.1//EN"
  "http://www.w3.org/Graphics/SVG/1.1/DTD/svg11.dtd">
<svg height="576pt" version="1.1" viewBox="0 0 720 576" width="720pt" xmlns="http://www.w3.org/2000/svg" xmlns:xlink="http://www.w3.org/1999/xlink">
 <metadata>
  <rdf:RDF xmlns:cc="http://creativecommons.org/ns#" xmlns:dc="http://purl.org/dc/elements/1.1/" xmlns:rdf="http://www.w3.org/1999/02/22-rdf-syntax-ns#">
   <cc:Work>
    <dc:type rdf:resource="http://purl.org/dc/dcmitype/StillImage"/>
    <dc:date>2021-06-17T22:21:30.859555</dc:date>
    <dc:format>image/svg+xml</dc:format>
    <dc:creator>
     <cc:Agent>
      <dc:title>Matplotlib v3.4.2, https://matplotlib.org/</dc:title>
     </cc:Agent>
    </dc:creator>
   </cc:Work>
  </rdf:RDF>
 </metadata>
 <defs>
  <style type="text/css">*{stroke-linecap:butt;stroke-linejoin:round;}</style>
 </defs>
 <g id="figure_1">
  <g id="patch_1">
   <path d="M 0 576 
L 720 576 
L 720 0 
L 0 0 
z
" style="fill:#ffffff;"/>
  </g>
  <g id="axes_1">
   <g id="patch_2">
    <path d="M 365.45184 117.02016 
C 339.338103 117.02016 313.543603 122.785914 289.915187 133.904602 
C 266.286772 145.023291 245.402148 161.223065 228.756626 181.344045 
C 212.111104 201.465025 200.11166 225.01526 193.617438 250.308585 
C 187.123216 275.601911 186.292997 302.019915 191.186224 327.671106 
L 304.458874 306.063191 
C 302.746245 297.085274 303.036822 287.838973 305.309799 278.986309 
C 307.582777 270.133645 311.782582 261.891063 317.608515 254.84872 
C 323.434448 247.806377 330.744066 242.136456 339.014011 238.244915 
C 347.283957 234.353374 356.312032 232.33536 365.45184 232.33536 
L 365.45184 117.02016 
z
" style="fill:#092436;opacity:0.5;stroke:#092436;stroke-linejoin:miter;"/>
   </g>
   <g id="patch_3">
    <path d="M 191.186224 327.671106 
C 197.493813 360.736643 213.083903 391.333916 236.126977 415.872297 
C 259.170052 440.410678 288.72804 457.891221 321.332274 466.262564 
C 353.936507 474.633906 388.259685 473.555255 420.27394 463.15319 
C 452.288194 452.751126 480.690241 433.449111 502.147064 407.512262 
C 523.603888 381.575412 537.241992 350.059605 541.460928 316.663257 
C 545.679863 283.26691 540.30788 249.349572 525.975387 218.891485 
C 511.642894 188.433397 488.933359 162.674495 460.511775 144.637616 
C 432.090191 126.600737 399.113587 117.020154 365.451807 117.02016 
L 365.451828 232.33536 
C 377.233451 232.335358 388.775263 235.688562 398.722817 242.00147 
C 408.670372 248.314377 416.618709 257.329993 421.635081 267.990324 
C 426.651454 278.650654 428.531648 290.521722 427.055021 302.210444 
C 425.578393 313.899166 420.805057 324.929698 413.295169 334.007596 
C 405.78528 343.085493 395.844564 349.841198 384.639575 353.481921 
C 373.434586 357.122643 361.421474 357.500171 350.009992 354.570201 
C 338.59851 351.640231 328.253214 345.522041 320.188138 336.933608 
C 312.123062 328.345175 306.66653 317.636129 304.458874 306.063191 
L 191.186224 327.671106 
z
" style="fill:#344c0e;opacity:0.5;stroke:#344c0e;stroke-linejoin:miter;"/>
   </g>
   <g id="patch_4">
    <path d="M 369 113.472 
C 342.886263 113.472 317.091763 119.237754 293.463347 130.356442 
C 269.834932 141.475131 248.950308 157.674905 232.304786 177.795885 
C 215.659264 197.916865 203.65982 221.4671 197.165598 246.760425 
C 190.671376 272.053751 189.841157 298.471755 194.734384 324.122946 
L 308.007034 302.515031 
C 306.294405 293.537114 306.584982 284.290813 308.857959 275.438149 
C 311.130937 266.585485 315.330742 258.342903 321.156675 251.30056 
C 326.982608 244.258217 334.292226 238.588296 342.562171 234.696755 
C 350.832117 230.805214 359.860192 228.7872 369 228.7872 
L 369 113.472 
z
" style="fill:#1f77b4;"/>
   </g>
   <g id="patch_5">
    <path d="M 194.734384 324.122946 
C 201.041973 357.188483 216.632063 387.785756 239.675137 412.324137 
C 262.718212 436.862518 292.2762 454.343061 324.880434 462.714404 
C 357.484667 471.085746 391.807845 470.007095 423.8221 459.60503 
C 455.836354 449.202966 484.238401 429.900951 505.695224 403.964102 
C 527.152048 378.027252 540.790152 346.511445 545.009088 313.115097 
C 549.228023 279.71875 543.85604 245.801412 529.523547 215.343325 
C 515.191054 184.885237 492.481519 159.126335 464.059935 141.089456 
C 435.638351 123.052577 402.661747 113.471994 368.999967 113.472 
L 368.999988 228.7872 
C 380.781611 228.787198 392.323423 232.140402 402.270977 238.45331 
C 412.218532 244.766217 420.166869 253.781833 425.183241 264.442164 
C 430.199614 275.102494 432.079808 286.973562 430.603181 298.662284 
C 429.126553 310.351006 424.353217 321.381538 416.843329 330.459436 
C 409.33344 339.537333 399.392724 346.293038 388.187735 349.933761 
C 376.982746 353.574483 364.969634 353.952011 353.558152 351.022041 
C 342.14667 348.092071 331.801374 341.973881 323.736298 333.385448 
C 315.671222 324.797015 310.21469 314.087969 308.007034 302.515031 
L 194.734384 324.122946 
z
" style="fill:#adff2f;"/>
   </g>
   <g id="matplotlib.axis_1"/>
   <g id="matplotlib.axis_2"/>
   <g id="text_1">
    <!-- KK -->
    <g transform="translate(196.93964 170.350599)scale(0.14 -0.14)">
     <defs>
      <path d="M 588 4666 
L 1791 4666 
L 1791 2963 
L 3525 4666 
L 4922 4666 
L 2675 2456 
L 5153 0 
L 3647 0 
L 1791 1838 
L 1791 0 
L 588 0 
L 588 4666 
z
" id="DejaVuSans-Bold-4b" transform="scale(0.015625)"/>
     </defs>
     <use xlink:href="#DejaVuSans-Bold-4b"/>
     <use x="77.490234" xlink:href="#DejaVuSans-Bold-4b"/>
    </g>
   </g>
   <g id="text_2">
    <!-- 28.0% -->
    <g transform="translate(262.69834 226.892656)scale(0.14 -0.14)">
     <defs>
      <path d="M 1844 884 
L 3897 884 
L 3897 0 
L 506 0 
L 506 884 
L 2209 2388 
Q 2438 2594 2547 2791 
Q 2656 2988 2656 3200 
Q 2656 3528 2436 3728 
Q 2216 3928 1850 3928 
Q 1569 3928 1234 3808 
Q 900 3688 519 3450 
L 519 4475 
Q 925 4609 1322 4679 
Q 1719 4750 2100 4750 
Q 2938 4750 3402 4381 
Q 3866 4013 3866 3353 
Q 3866 2972 3669 2642 
Q 3472 2313 2841 1759 
L 1844 884 
z
" id="DejaVuSans-Bold-32" transform="scale(0.015625)"/>
      <path d="M 2228 2088 
Q 1891 2088 1709 1903 
Q 1528 1719 1528 1375 
Q 1528 1031 1709 848 
Q 1891 666 2228 666 
Q 2563 666 2741 848 
Q 2919 1031 2919 1375 
Q 2919 1722 2741 1905 
Q 2563 2088 2228 2088 
z
M 1350 2484 
Q 925 2613 709 2878 
Q 494 3144 494 3541 
Q 494 4131 934 4440 
Q 1375 4750 2228 4750 
Q 3075 4750 3515 4442 
Q 3956 4134 3956 3541 
Q 3956 3144 3739 2878 
Q 3522 2613 3097 2484 
Q 3572 2353 3814 2058 
Q 4056 1763 4056 1313 
Q 4056 619 3595 264 
Q 3134 -91 2228 -91 
Q 1319 -91 855 264 
Q 391 619 391 1313 
Q 391 1763 633 2058 
Q 875 2353 1350 2484 
z
M 1631 3419 
Q 1631 3141 1786 2991 
Q 1941 2841 2228 2841 
Q 2509 2841 2662 2991 
Q 2816 3141 2816 3419 
Q 2816 3697 2662 3845 
Q 2509 3994 2228 3994 
Q 1941 3994 1786 3844 
Q 1631 3694 1631 3419 
z
" id="DejaVuSans-Bold-38" transform="scale(0.015625)"/>
      <path d="M 653 1209 
L 1778 1209 
L 1778 0 
L 653 0 
L 653 1209 
z
" id="DejaVuSans-Bold-2e" transform="scale(0.015625)"/>
      <path d="M 2944 2338 
Q 2944 3213 2780 3570 
Q 2616 3928 2228 3928 
Q 1841 3928 1675 3570 
Q 1509 3213 1509 2338 
Q 1509 1453 1675 1090 
Q 1841 728 2228 728 
Q 2613 728 2778 1090 
Q 2944 1453 2944 2338 
z
M 4147 2328 
Q 4147 1169 3647 539 
Q 3147 -91 2228 -91 
Q 1306 -91 806 539 
Q 306 1169 306 2328 
Q 306 3491 806 4120 
Q 1306 4750 2228 4750 
Q 3147 4750 3647 4120 
Q 4147 3491 4147 2328 
z
" id="DejaVuSans-Bold-30" transform="scale(0.015625)"/>
      <path d="M 4959 1925 
Q 4738 1925 4616 1733 
Q 4494 1541 4494 1184 
Q 4494 825 4614 633 
Q 4734 441 4959 441 
Q 5184 441 5303 633 
Q 5422 825 5422 1184 
Q 5422 1541 5301 1733 
Q 5181 1925 4959 1925 
z
M 4959 2450 
Q 5541 2450 5875 2112 
Q 6209 1775 6209 1184 
Q 6209 594 5875 251 
Q 5541 -91 4959 -91 
Q 4378 -91 4042 251 
Q 3706 594 3706 1184 
Q 3706 1772 4042 2111 
Q 4378 2450 4959 2450 
z
M 2094 -91 
L 1403 -91 
L 4319 4750 
L 5013 4750 
L 2094 -91 
z
M 1453 4750 
Q 2034 4750 2367 4411 
Q 2700 4072 2700 3481 
Q 2700 2891 2367 2550 
Q 2034 2209 1453 2209 
Q 872 2209 539 2550 
Q 206 2891 206 3481 
Q 206 4072 539 4411 
Q 872 4750 1453 4750 
z
M 1453 4225 
Q 1228 4225 1106 4031 
Q 984 3838 984 3481 
Q 984 3122 1106 2926 
Q 1228 2731 1453 2731 
Q 1678 2731 1798 2926 
Q 1919 3122 1919 3481 
Q 1919 3838 1797 4031 
Q 1675 4225 1453 4225 
z
" id="DejaVuSans-Bold-25" transform="scale(0.015625)"/>
     </defs>
     <use xlink:href="#DejaVuSans-Bold-32"/>
     <use x="69.580078" xlink:href="#DejaVuSans-Bold-38"/>
     <use x="139.160156" xlink:href="#DejaVuSans-Bold-2e"/>
     <use x="177.148438" xlink:href="#DejaVuSans-Bold-30"/>
     <use x="246.728516" xlink:href="#DejaVuSans-Bold-25"/>
    </g>
   </g>
   <g id="text_3">
    <!-- LQ -->
    <g transform="translate(519.364747 419.135637)scale(0.14 -0.14)">
     <defs>
      <path d="M 588 4666 
L 1791 4666 
L 1791 909 
L 3903 909 
L 3903 0 
L 588 0 
L 588 4666 
z
" id="DejaVuSans-Bold-4c" transform="scale(0.015625)"/>
      <path d="M 2847 -84 
L 2753 -84 
Q 1600 -84 959 553 
Q 319 1191 319 2328 
Q 319 3463 958 4106 
Q 1597 4750 2719 4750 
Q 3853 4750 4486 4112 
Q 5119 3475 5119 2328 
Q 5119 1541 4783 972 
Q 4447 403 3816 116 
L 4756 -934 
L 3609 -934 
L 2847 -84 
z
M 2719 3878 
Q 2169 3878 1866 3472 
Q 1563 3066 1563 2328 
Q 1563 1578 1859 1179 
Q 2156 781 2719 781 
Q 3272 781 3575 1187 
Q 3878 1594 3878 2328 
Q 3878 3066 3575 3472 
Q 3272 3878 2719 3878 
z
" id="DejaVuSans-Bold-51" transform="scale(0.015625)"/>
     </defs>
     <use xlink:href="#DejaVuSans-Bold-4c"/>
     <use x="63.720703" xlink:href="#DejaVuSans-Bold-51"/>
    </g>
   </g>
   <g id="text_4">
    <!-- 72.0% -->
    <g transform="translate(426.732603 362.593586)scale(0.14 -0.14)">
     <defs>
      <path d="M 428 4666 
L 3944 4666 
L 3944 3988 
L 2125 0 
L 953 0 
L 2675 3781 
L 428 3781 
L 428 4666 
z
" id="DejaVuSans-Bold-37" transform="scale(0.015625)"/>
     </defs>
     <use xlink:href="#DejaVuSans-Bold-37"/>
     <use x="69.580078" xlink:href="#DejaVuSans-Bold-32"/>
     <use x="139.160156" xlink:href="#DejaVuSans-Bold-2e"/>
     <use x="177.148438" xlink:href="#DejaVuSans-Bold-30"/>
     <use x="246.728516" xlink:href="#DejaVuSans-Bold-25"/>
    </g>
   </g>
   <g id="text_5">
    <!-- KK vs LQ, Prediction After 3 overs 2nd Innings -->
    <g transform="translate(159.65 63.12)scale(0.16 -0.16)">
     <defs>
      <path id="DejaVuSans-Bold-20" transform="scale(0.015625)"/>
      <path d="M 97 3500 
L 1216 3500 
L 2088 1081 
L 2956 3500 
L 4078 3500 
L 2700 0 
L 1472 0 
L 97 3500 
z
" id="DejaVuSans-Bold-76" transform="scale(0.015625)"/>
      <path d="M 3272 3391 
L 3272 2541 
Q 2913 2691 2578 2766 
Q 2244 2841 1947 2841 
Q 1628 2841 1473 2761 
Q 1319 2681 1319 2516 
Q 1319 2381 1436 2309 
Q 1553 2238 1856 2203 
L 2053 2175 
Q 2913 2066 3209 1816 
Q 3506 1566 3506 1031 
Q 3506 472 3093 190 
Q 2681 -91 1863 -91 
Q 1516 -91 1145 -36 
Q 775 19 384 128 
L 384 978 
Q 719 816 1070 734 
Q 1422 653 1784 653 
Q 2113 653 2278 743 
Q 2444 834 2444 1013 
Q 2444 1163 2330 1236 
Q 2216 1309 1875 1350 
L 1678 1375 
Q 931 1469 631 1722 
Q 331 1975 331 2491 
Q 331 3047 712 3315 
Q 1094 3584 1881 3584 
Q 2191 3584 2531 3537 
Q 2872 3491 3272 3391 
z
" id="DejaVuSans-Bold-73" transform="scale(0.015625)"/>
      <path d="M 653 1209 
L 1778 1209 
L 1778 256 
L 1006 -909 
L 341 -909 
L 653 256 
L 653 1209 
z
" id="DejaVuSans-Bold-2c" transform="scale(0.015625)"/>
      <path d="M 588 4666 
L 2584 4666 
Q 3475 4666 3951 4270 
Q 4428 3875 4428 3144 
Q 4428 2409 3951 2014 
Q 3475 1619 2584 1619 
L 1791 1619 
L 1791 0 
L 588 0 
L 588 4666 
z
M 1791 3794 
L 1791 2491 
L 2456 2491 
Q 2806 2491 2997 2661 
Q 3188 2831 3188 3144 
Q 3188 3456 2997 3625 
Q 2806 3794 2456 3794 
L 1791 3794 
z
" id="DejaVuSans-Bold-50" transform="scale(0.015625)"/>
      <path d="M 3138 2547 
Q 2991 2616 2845 2648 
Q 2700 2681 2553 2681 
Q 2122 2681 1889 2404 
Q 1656 2128 1656 1613 
L 1656 0 
L 538 0 
L 538 3500 
L 1656 3500 
L 1656 2925 
Q 1872 3269 2151 3426 
Q 2431 3584 2822 3584 
Q 2878 3584 2943 3579 
Q 3009 3575 3134 3559 
L 3138 2547 
z
" id="DejaVuSans-Bold-72" transform="scale(0.015625)"/>
      <path d="M 4031 1759 
L 4031 1441 
L 1416 1441 
Q 1456 1047 1700 850 
Q 1944 653 2381 653 
Q 2734 653 3104 758 
Q 3475 863 3866 1075 
L 3866 213 
Q 3469 63 3072 -14 
Q 2675 -91 2278 -91 
Q 1328 -91 801 392 
Q 275 875 275 1747 
Q 275 2603 792 3093 
Q 1309 3584 2216 3584 
Q 3041 3584 3536 3087 
Q 4031 2591 4031 1759 
z
M 2881 2131 
Q 2881 2450 2695 2645 
Q 2509 2841 2209 2841 
Q 1884 2841 1681 2658 
Q 1478 2475 1428 2131 
L 2881 2131 
z
" id="DejaVuSans-Bold-65" transform="scale(0.015625)"/>
      <path d="M 2919 2988 
L 2919 4863 
L 4044 4863 
L 4044 0 
L 2919 0 
L 2919 506 
Q 2688 197 2409 53 
Q 2131 -91 1766 -91 
Q 1119 -91 703 423 
Q 288 938 288 1747 
Q 288 2556 703 3070 
Q 1119 3584 1766 3584 
Q 2128 3584 2408 3439 
Q 2688 3294 2919 2988 
z
M 2181 722 
Q 2541 722 2730 984 
Q 2919 1247 2919 1747 
Q 2919 2247 2730 2509 
Q 2541 2772 2181 2772 
Q 1825 2772 1636 2509 
Q 1447 2247 1447 1747 
Q 1447 1247 1636 984 
Q 1825 722 2181 722 
z
" id="DejaVuSans-Bold-64" transform="scale(0.015625)"/>
      <path d="M 538 3500 
L 1656 3500 
L 1656 0 
L 538 0 
L 538 3500 
z
M 538 4863 
L 1656 4863 
L 1656 3950 
L 538 3950 
L 538 4863 
z
" id="DejaVuSans-Bold-69" transform="scale(0.015625)"/>
      <path d="M 3366 3391 
L 3366 2478 
Q 3138 2634 2908 2709 
Q 2678 2784 2431 2784 
Q 1963 2784 1702 2511 
Q 1441 2238 1441 1747 
Q 1441 1256 1702 982 
Q 1963 709 2431 709 
Q 2694 709 2930 787 
Q 3166 866 3366 1019 
L 3366 103 
Q 3103 6 2833 -42 
Q 2563 -91 2291 -91 
Q 1344 -91 809 395 
Q 275 881 275 1747 
Q 275 2613 809 3098 
Q 1344 3584 2291 3584 
Q 2566 3584 2833 3536 
Q 3100 3488 3366 3391 
z
" id="DejaVuSans-Bold-63" transform="scale(0.015625)"/>
      <path d="M 1759 4494 
L 1759 3500 
L 2913 3500 
L 2913 2700 
L 1759 2700 
L 1759 1216 
Q 1759 972 1856 886 
Q 1953 800 2241 800 
L 2816 800 
L 2816 0 
L 1856 0 
Q 1194 0 917 276 
Q 641 553 641 1216 
L 641 2700 
L 84 2700 
L 84 3500 
L 641 3500 
L 641 4494 
L 1759 4494 
z
" id="DejaVuSans-Bold-74" transform="scale(0.015625)"/>
      <path d="M 2203 2784 
Q 1831 2784 1636 2517 
Q 1441 2250 1441 1747 
Q 1441 1244 1636 976 
Q 1831 709 2203 709 
Q 2569 709 2762 976 
Q 2956 1244 2956 1747 
Q 2956 2250 2762 2517 
Q 2569 2784 2203 2784 
z
M 2203 3584 
Q 3106 3584 3614 3096 
Q 4122 2609 4122 1747 
Q 4122 884 3614 396 
Q 3106 -91 2203 -91 
Q 1297 -91 786 396 
Q 275 884 275 1747 
Q 275 2609 786 3096 
Q 1297 3584 2203 3584 
z
" id="DejaVuSans-Bold-6f" transform="scale(0.015625)"/>
      <path d="M 4056 2131 
L 4056 0 
L 2931 0 
L 2931 347 
L 2931 1631 
Q 2931 2084 2911 2256 
Q 2891 2428 2841 2509 
Q 2775 2619 2662 2680 
Q 2550 2741 2406 2741 
Q 2056 2741 1856 2470 
Q 1656 2200 1656 1722 
L 1656 0 
L 538 0 
L 538 3500 
L 1656 3500 
L 1656 2988 
Q 1909 3294 2193 3439 
Q 2478 3584 2822 3584 
Q 3428 3584 3742 3212 
Q 4056 2841 4056 2131 
z
" id="DejaVuSans-Bold-6e" transform="scale(0.015625)"/>
      <path d="M 3419 850 
L 1538 850 
L 1241 0 
L 31 0 
L 1759 4666 
L 3194 4666 
L 4922 0 
L 3713 0 
L 3419 850 
z
M 1838 1716 
L 3116 1716 
L 2478 3572 
L 1838 1716 
z
" id="DejaVuSans-Bold-41" transform="scale(0.015625)"/>
      <path d="M 2841 4863 
L 2841 4128 
L 2222 4128 
Q 1984 4128 1890 4042 
Q 1797 3956 1797 3744 
L 1797 3500 
L 2753 3500 
L 2753 2700 
L 1797 2700 
L 1797 0 
L 678 0 
L 678 2700 
L 122 2700 
L 122 3500 
L 678 3500 
L 678 3744 
Q 678 4316 997 4589 
Q 1316 4863 1984 4863 
L 2841 4863 
z
" id="DejaVuSans-Bold-66" transform="scale(0.015625)"/>
      <path d="M 2981 2516 
Q 3453 2394 3698 2092 
Q 3944 1791 3944 1325 
Q 3944 631 3412 270 
Q 2881 -91 1863 -91 
Q 1503 -91 1142 -33 
Q 781 25 428 141 
L 428 1069 
Q 766 900 1098 814 
Q 1431 728 1753 728 
Q 2231 728 2486 893 
Q 2741 1059 2741 1369 
Q 2741 1688 2480 1852 
Q 2219 2016 1709 2016 
L 1228 2016 
L 1228 2791 
L 1734 2791 
Q 2188 2791 2409 2933 
Q 2631 3075 2631 3366 
Q 2631 3634 2415 3781 
Q 2200 3928 1806 3928 
Q 1516 3928 1219 3862 
Q 922 3797 628 3669 
L 628 4550 
Q 984 4650 1334 4700 
Q 1684 4750 2022 4750 
Q 2931 4750 3382 4451 
Q 3834 4153 3834 3553 
Q 3834 3144 3618 2883 
Q 3403 2622 2981 2516 
z
" id="DejaVuSans-Bold-33" transform="scale(0.015625)"/>
      <path d="M 588 4666 
L 1791 4666 
L 1791 0 
L 588 0 
L 588 4666 
z
" id="DejaVuSans-Bold-49" transform="scale(0.015625)"/>
      <path d="M 2919 594 
Q 2688 288 2409 144 
Q 2131 0 1766 0 
Q 1125 0 706 504 
Q 288 1009 288 1791 
Q 288 2575 706 3076 
Q 1125 3578 1766 3578 
Q 2131 3578 2409 3434 
Q 2688 3291 2919 2981 
L 2919 3500 
L 4044 3500 
L 4044 353 
Q 4044 -491 3511 -936 
Q 2978 -1381 1966 -1381 
Q 1638 -1381 1331 -1331 
Q 1025 -1281 716 -1178 
L 716 -306 
Q 1009 -475 1290 -558 
Q 1572 -641 1856 -641 
Q 2406 -641 2662 -400 
Q 2919 -159 2919 353 
L 2919 594 
z
M 2181 2772 
Q 1834 2772 1640 2515 
Q 1447 2259 1447 1791 
Q 1447 1309 1634 1061 
Q 1822 813 2181 813 
Q 2531 813 2725 1069 
Q 2919 1325 2919 1791 
Q 2919 2259 2725 2515 
Q 2531 2772 2181 2772 
z
" id="DejaVuSans-Bold-67" transform="scale(0.015625)"/>
     </defs>
     <use xlink:href="#DejaVuSans-Bold-4b"/>
     <use x="77.490234" xlink:href="#DejaVuSans-Bold-4b"/>
     <use x="154.980469" xlink:href="#DejaVuSans-Bold-20"/>
     <use x="189.794922" xlink:href="#DejaVuSans-Bold-76"/>
     <use x="254.980469" xlink:href="#DejaVuSans-Bold-73"/>
     <use x="314.501953" xlink:href="#DejaVuSans-Bold-20"/>
     <use x="349.316406" xlink:href="#DejaVuSans-Bold-4c"/>
     <use x="413.037109" xlink:href="#DejaVuSans-Bold-51"/>
     <use x="498.046875" xlink:href="#DejaVuSans-Bold-2c"/>
     <use x="536.035156" xlink:href="#DejaVuSans-Bold-20"/>
     <use x="570.849609" xlink:href="#DejaVuSans-Bold-50"/>
     <use x="644.140625" xlink:href="#DejaVuSans-Bold-72"/>
     <use x="693.457031" xlink:href="#DejaVuSans-Bold-65"/>
     <use x="761.279297" xlink:href="#DejaVuSans-Bold-64"/>
     <use x="832.861328" xlink:href="#DejaVuSans-Bold-69"/>
     <use x="867.138672" xlink:href="#DejaVuSans-Bold-63"/>
     <use x="926.416016" xlink:href="#DejaVuSans-Bold-74"/>
     <use x="974.21875" xlink:href="#DejaVuSans-Bold-69"/>
     <use x="1008.496094" xlink:href="#DejaVuSans-Bold-6f"/>
     <use x="1077.197266" xlink:href="#DejaVuSans-Bold-6e"/>
     <use x="1148.388672" xlink:href="#DejaVuSans-Bold-20"/>
     <use x="1183.203125" xlink:href="#DejaVuSans-Bold-41"/>
     <use x="1260.595703" xlink:href="#DejaVuSans-Bold-66"/>
     <use x="1304.101562" xlink:href="#DejaVuSans-Bold-74"/>
     <use x="1351.904297" xlink:href="#DejaVuSans-Bold-65"/>
     <use x="1419.726562" xlink:href="#DejaVuSans-Bold-72"/>
     <use x="1469.042969" xlink:href="#DejaVuSans-Bold-20"/>
     <use x="1503.857422" xlink:href="#DejaVuSans-Bold-33"/>
     <use x="1573.4375" xlink:href="#DejaVuSans-Bold-20"/>
     <use x="1608.251953" xlink:href="#DejaVuSans-Bold-6f"/>
     <use x="1676.953125" xlink:href="#DejaVuSans-Bold-76"/>
     <use x="1742.138672" xlink:href="#DejaVuSans-Bold-65"/>
     <use x="1809.960938" xlink:href="#DejaVuSans-Bold-72"/>
     <use x="1859.277344" xlink:href="#DejaVuSans-Bold-73"/>
     <use x="1918.798828" xlink:href="#DejaVuSans-Bold-20"/>
     <use x="1953.613281" xlink:href="#DejaVuSans-Bold-32"/>
     <use x="2023.193359" xlink:href="#DejaVuSans-Bold-6e"/>
     <use x="2094.384766" xlink:href="#DejaVuSans-Bold-64"/>
     <use x="2165.966797" xlink:href="#DejaVuSans-Bold-20"/>
     <use x="2200.78125" xlink:href="#DejaVuSans-Bold-49"/>
     <use x="2237.988281" xlink:href="#DejaVuSans-Bold-6e"/>
     <use x="2309.179688" xlink:href="#DejaVuSans-Bold-6e"/>
     <use x="2380.371094" xlink:href="#DejaVuSans-Bold-69"/>
     <use x="2414.648438" xlink:href="#DejaVuSans-Bold-6e"/>
     <use x="2485.839844" xlink:href="#DejaVuSans-Bold-67"/>
     <use x="2557.421875" xlink:href="#DejaVuSans-Bold-73"/>
    </g>
   </g>
  </g>
 </g>
</svg>
