<?xml version="1.0" encoding="utf-8" standalone="no"?>
<!DOCTYPE svg PUBLIC "-//W3C//DTD SVG 1.1//EN"
  "http://www.w3.org/Graphics/SVG/1.1/DTD/svg11.dtd">
<svg height="576pt" version="1.1" viewBox="0 0 720 576" width="720pt" xmlns="http://www.w3.org/2000/svg" xmlns:xlink="http://www.w3.org/1999/xlink">
 <metadata>
  <rdf:RDF xmlns:cc="http://creativecommons.org/ns#" xmlns:dc="http://purl.org/dc/elements/1.1/" xmlns:rdf="http://www.w3.org/1999/02/22-rdf-syntax-ns#">
   <cc:Work>
    <dc:type rdf:resource="http://purl.org/dc/dcmitype/StillImage"/>
    <dc:date>2021-06-17T22:15:26.399426</dc:date>
    <dc:format>image/svg+xml</dc:format>
    <dc:creator>
     <cc:Agent>
      <dc:title>Matplotlib v3.4.2, https://matplotlib.org/</dc:title>
     </cc:Agent>
    </dc:creator>
   </cc:Work>
  </rdf:RDF>
 </metadata>
 <defs>
  <style type="text/css">*{stroke-linecap:butt;stroke-linejoin:round;}</style>
 </defs>
 <g id="figure_1">
  <g id="patch_1">
   <path d="M 0 576 
L 720 576 
L 720 0 
L 0 0 
z
" style="fill:#ffffff;"/>
  </g>
  <g id="axes_1">
   <g id="patch_2">
    <path d="M 365.45184 117.02016 
C 323.221009 117.02016 282.34714 132.099326 250.234563 159.526056 
C 218.121987 186.952787 196.834387 224.964528 190.228028 266.675428 
C 183.621669 308.386327 192.121102 351.115873 214.186649 387.123577 
C 236.252195 423.131281 270.465834 450.103143 310.62974 463.15319 
L 346.264105 353.481921 
C 332.206738 348.914404 320.231964 339.474252 312.509023 326.871556 
C 304.786082 314.268859 301.81128 299.313519 304.123506 284.714704 
C 306.435731 270.115889 313.886391 256.811779 325.125793 247.212424 
C 336.365195 237.613068 350.671049 232.33536 365.45184 232.33536 
L 365.45184 117.02016 
z
" style="fill:#092436;opacity:0.5;stroke:#092436;stroke-linejoin:miter;"/>
   </g>
   <g id="patch_3">
    <path d="M 310.62974 463.15319 
C 335.018451 471.077565 360.837846 473.620555 386.303903 470.60645 
C 411.76996 467.592345 436.282315 459.092203 458.147257 445.693351 
C 480.012198 432.2945 498.714259 414.312817 512.961196 392.990771 
C 527.208134 371.668724 536.664076 347.508982 540.675652 322.180892 
C 544.687228 296.852802 543.159866 270.953475 536.1991 246.272457 
C 529.238334 221.59144 517.008264 198.710588 500.353944 179.210883 
C 483.699623 159.711178 463.013677 144.052327 439.725428 133.316297 
C 416.437179 122.580266 391.095648 117.02016 365.45184 117.02016 
L 365.45184 232.33536 
C 374.427173 232.33536 383.296709 234.281397 391.447596 238.039008 
C 399.598483 241.796618 406.838564 247.277216 412.667576 254.102113 
C 418.496589 260.92701 422.777113 268.935308 425.213381 277.573664 
C 427.649649 286.21202 428.184226 295.276785 426.780174 304.141616 
C 425.376123 313.006448 422.066543 321.462357 417.080115 328.925074 
C 412.093687 336.38779 405.547965 342.681379 397.895236 347.370977 
C 390.242506 352.060575 381.663182 355.035625 372.750062 356.090562 
C 363.836942 357.145498 354.800154 356.255452 346.264105 353.481921 
L 310.62974 463.15319 
z
" style="fill:#344c0e;opacity:0.5;stroke:#344c0e;stroke-linejoin:miter;"/>
   </g>
   <g id="patch_4">
    <path d="M 369 113.472 
C 326.769169 113.472 285.8953 128.551166 253.782723 155.977896 
C 221.670147 183.404627 200.382547 221.416368 193.776188 263.127268 
C 187.169829 304.838167 195.669262 347.567713 217.734809 383.575417 
C 239.800355 419.583121 274.013994 446.554983 314.1779 459.60503 
L 349.812265 349.933761 
C 335.754898 345.366244 323.780124 335.926092 316.057183 323.323396 
C 308.334242 310.720699 305.35944 295.765359 307.671666 281.166544 
C 309.983891 266.567729 317.434551 253.263619 328.673953 243.664264 
C 339.913355 234.064908 354.219209 228.7872 369 228.7872 
L 369 113.472 
z
" style="fill:#1f77b4;"/>
   </g>
   <g id="patch_5">
    <path d="M 314.1779 459.60503 
C 338.566611 467.529405 364.386006 470.072395 389.852063 467.05829 
C 415.31812 464.044185 439.830475 455.544043 461.695417 442.145191 
C 483.560358 428.74634 502.262419 410.764657 516.509356 389.442611 
C 530.756294 368.120564 540.212236 343.960822 544.223812 318.632732 
C 548.235388 293.304642 546.708026 267.405315 539.74726 242.724297 
C 532.786494 218.04328 520.556424 195.162428 503.902104 175.662723 
C 487.247783 156.163018 466.561837 140.504167 443.273588 129.768137 
C 419.985339 119.032106 394.643808 113.472 369 113.472 
L 369 228.7872 
C 377.975333 228.7872 386.844869 230.733237 394.995756 234.490848 
C 403.146643 238.248458 410.386724 243.729056 416.215736 250.553953 
C 422.044749 257.37885 426.325273 265.387148 428.761541 274.025504 
C 431.197809 282.66386 431.732386 291.728625 430.328334 300.593456 
C 428.924283 309.458288 425.614703 317.914197 420.628275 325.376914 
C 415.641847 332.83963 409.096125 339.133219 401.443396 343.822817 
C 393.790666 348.512415 385.211342 351.487465 376.298222 352.542402 
C 367.385102 353.597338 358.348314 352.707292 349.812265 349.933761 
L 314.1779 459.60503 
z
" style="fill:#adff2f;"/>
   </g>
   <g id="matplotlib.axis_1"/>
   <g id="matplotlib.axis_2"/>
   <g id="text_1">
    <!-- KK -->
    <g transform="translate(154.558182 264.21512)scale(0.14 -0.14)">
     <defs>
      <path d="M 588 4666 
L 1791 4666 
L 1791 2963 
L 3525 4666 
L 4922 4666 
L 2675 2456 
L 5153 0 
L 3647 0 
L 1791 1838 
L 1791 0 
L 588 0 
L 588 4666 
z
" id="DejaVuSans-Bold-4b" transform="scale(0.015625)"/>
     </defs>
     <use xlink:href="#DejaVuSans-Bold-4b"/>
     <use x="77.490234" xlink:href="#DejaVuSans-Bold-4b"/>
    </g>
   </g>
   <g id="text_2">
    <!-- 45.0% -->
    <g transform="translate(239.581181 278.091486)scale(0.14 -0.14)">
     <defs>
      <path d="M 2356 3675 
L 1038 1722 
L 2356 1722 
L 2356 3675 
z
M 2156 4666 
L 3494 4666 
L 3494 1722 
L 4159 1722 
L 4159 850 
L 3494 850 
L 3494 0 
L 2356 0 
L 2356 850 
L 288 850 
L 288 1881 
L 2156 4666 
z
" id="DejaVuSans-Bold-34" transform="scale(0.015625)"/>
      <path d="M 678 4666 
L 3669 4666 
L 3669 3781 
L 1638 3781 
L 1638 3059 
Q 1775 3097 1914 3117 
Q 2053 3138 2203 3138 
Q 3056 3138 3531 2711 
Q 4006 2284 4006 1522 
Q 4006 766 3489 337 
Q 2972 -91 2053 -91 
Q 1656 -91 1267 -14 
Q 878 63 494 219 
L 494 1166 
Q 875 947 1217 837 
Q 1559 728 1863 728 
Q 2300 728 2551 942 
Q 2803 1156 2803 1522 
Q 2803 1891 2551 2103 
Q 2300 2316 1863 2316 
Q 1603 2316 1309 2248 
Q 1016 2181 678 2041 
L 678 4666 
z
" id="DejaVuSans-Bold-35" transform="scale(0.015625)"/>
      <path d="M 653 1209 
L 1778 1209 
L 1778 0 
L 653 0 
L 653 1209 
z
" id="DejaVuSans-Bold-2e" transform="scale(0.015625)"/>
      <path d="M 2944 2338 
Q 2944 3213 2780 3570 
Q 2616 3928 2228 3928 
Q 1841 3928 1675 3570 
Q 1509 3213 1509 2338 
Q 1509 1453 1675 1090 
Q 1841 728 2228 728 
Q 2613 728 2778 1090 
Q 2944 1453 2944 2338 
z
M 4147 2328 
Q 4147 1169 3647 539 
Q 3147 -91 2228 -91 
Q 1306 -91 806 539 
Q 306 1169 306 2328 
Q 306 3491 806 4120 
Q 1306 4750 2228 4750 
Q 3147 4750 3647 4120 
Q 4147 3491 4147 2328 
z
" id="DejaVuSans-Bold-30" transform="scale(0.015625)"/>
      <path d="M 4959 1925 
Q 4738 1925 4616 1733 
Q 4494 1541 4494 1184 
Q 4494 825 4614 633 
Q 4734 441 4959 441 
Q 5184 441 5303 633 
Q 5422 825 5422 1184 
Q 5422 1541 5301 1733 
Q 5181 1925 4959 1925 
z
M 4959 2450 
Q 5541 2450 5875 2112 
Q 6209 1775 6209 1184 
Q 6209 594 5875 251 
Q 5541 -91 4959 -91 
Q 4378 -91 4042 251 
Q 3706 594 3706 1184 
Q 3706 1772 4042 2111 
Q 4378 2450 4959 2450 
z
M 2094 -91 
L 1403 -91 
L 4319 4750 
L 5013 4750 
L 2094 -91 
z
M 1453 4750 
Q 2034 4750 2367 4411 
Q 2700 4072 2700 3481 
Q 2700 2891 2367 2550 
Q 2034 2209 1453 2209 
Q 872 2209 539 2550 
Q 206 2891 206 3481 
Q 206 4072 539 4411 
Q 872 4750 1453 4750 
z
M 1453 4225 
Q 1228 4225 1106 4031 
Q 984 3838 984 3481 
Q 984 3122 1106 2926 
Q 1228 2731 1453 2731 
Q 1678 2731 1798 2926 
Q 1919 3122 1919 3481 
Q 1919 3838 1797 4031 
Q 1675 4225 1453 4225 
z
" id="DejaVuSans-Bold-25" transform="scale(0.015625)"/>
     </defs>
     <use xlink:href="#DejaVuSans-Bold-34"/>
     <use x="69.580078" xlink:href="#DejaVuSans-Bold-35"/>
     <use x="139.160156" xlink:href="#DejaVuSans-Bold-2e"/>
     <use x="177.148438" xlink:href="#DejaVuSans-Bold-30"/>
     <use x="246.728516" xlink:href="#DejaVuSans-Bold-25"/>
    </g>
   </g>
   <g id="text_3">
    <!-- LQ -->
    <g transform="translate(561.746193 325.27113)scale(0.14 -0.14)">
     <defs>
      <path d="M 588 4666 
L 1791 4666 
L 1791 909 
L 3903 909 
L 3903 0 
L 588 0 
L 588 4666 
z
" id="DejaVuSans-Bold-4c" transform="scale(0.015625)"/>
      <path d="M 2847 -84 
L 2753 -84 
Q 1600 -84 959 553 
Q 319 1191 319 2328 
Q 319 3463 958 4106 
Q 1597 4750 2719 4750 
Q 3853 4750 4486 4112 
Q 5119 3475 5119 2328 
Q 5119 1541 4783 972 
Q 4447 403 3816 116 
L 4756 -934 
L 3609 -934 
L 2847 -84 
z
M 2719 3878 
Q 2169 3878 1866 3472 
Q 1563 3066 1563 2328 
Q 1563 1578 1859 1179 
Q 2156 781 2719 781 
Q 3272 781 3575 1187 
Q 3878 1594 3878 2328 
Q 3878 3066 3575 3472 
Q 3272 3878 2719 3878 
z
" id="DejaVuSans-Bold-51" transform="scale(0.015625)"/>
     </defs>
     <use xlink:href="#DejaVuSans-Bold-4c"/>
     <use x="63.720703" xlink:href="#DejaVuSans-Bold-51"/>
    </g>
   </g>
   <g id="text_4">
    <!-- 55.0% -->
    <g transform="translate(449.849756 311.394764)scale(0.14 -0.14)">
     <use xlink:href="#DejaVuSans-Bold-35"/>
     <use x="69.580078" xlink:href="#DejaVuSans-Bold-35"/>
     <use x="139.160156" xlink:href="#DejaVuSans-Bold-2e"/>
     <use x="177.148438" xlink:href="#DejaVuSans-Bold-30"/>
     <use x="246.728516" xlink:href="#DejaVuSans-Bold-25"/>
    </g>
   </g>
   <g id="text_5">
    <!-- KK vs LQ, Prediction After 2 overs 2nd Innings -->
    <g transform="translate(159.65 63.12)scale(0.16 -0.16)">
     <defs>
      <path id="DejaVuSans-Bold-20" transform="scale(0.015625)"/>
      <path d="M 97 3500 
L 1216 3500 
L 2088 1081 
L 2956 3500 
L 4078 3500 
L 2700 0 
L 1472 0 
L 97 3500 
z
" id="DejaVuSans-Bold-76" transform="scale(0.015625)"/>
      <path d="M 3272 3391 
L 3272 2541 
Q 2913 2691 2578 2766 
Q 2244 2841 1947 2841 
Q 1628 2841 1473 2761 
Q 1319 2681 1319 2516 
Q 1319 2381 1436 2309 
Q 1553 2238 1856 2203 
L 2053 2175 
Q 2913 2066 3209 1816 
Q 3506 1566 3506 1031 
Q 3506 472 3093 190 
Q 2681 -91 1863 -91 
Q 1516 -91 1145 -36 
Q 775 19 384 128 
L 384 978 
Q 719 816 1070 734 
Q 1422 653 1784 653 
Q 2113 653 2278 743 
Q 2444 834 2444 1013 
Q 2444 1163 2330 1236 
Q 2216 1309 1875 1350 
L 1678 1375 
Q 931 1469 631 1722 
Q 331 1975 331 2491 
Q 331 3047 712 3315 
Q 1094 3584 1881 3584 
Q 2191 3584 2531 3537 
Q 2872 3491 3272 3391 
z
" id="DejaVuSans-Bold-73" transform="scale(0.015625)"/>
      <path d="M 653 1209 
L 1778 1209 
L 1778 256 
L 1006 -909 
L 341 -909 
L 653 256 
L 653 1209 
z
" id="DejaVuSans-Bold-2c" transform="scale(0.015625)"/>
      <path d="M 588 4666 
L 2584 4666 
Q 3475 4666 3951 4270 
Q 4428 3875 4428 3144 
Q 4428 2409 3951 2014 
Q 3475 1619 2584 1619 
L 1791 1619 
L 1791 0 
L 588 0 
L 588 4666 
z
M 1791 3794 
L 1791 2491 
L 2456 2491 
Q 2806 2491 2997 2661 
Q 3188 2831 3188 3144 
Q 3188 3456 2997 3625 
Q 2806 3794 2456 3794 
L 1791 3794 
z
" id="DejaVuSans-Bold-50" transform="scale(0.015625)"/>
      <path d="M 3138 2547 
Q 2991 2616 2845 2648 
Q 2700 2681 2553 2681 
Q 2122 2681 1889 2404 
Q 1656 2128 1656 1613 
L 1656 0 
L 538 0 
L 538 3500 
L 1656 3500 
L 1656 2925 
Q 1872 3269 2151 3426 
Q 2431 3584 2822 3584 
Q 2878 3584 2943 3579 
Q 3009 3575 3134 3559 
L 3138 2547 
z
" id="DejaVuSans-Bold-72" transform="scale(0.015625)"/>
      <path d="M 4031 1759 
L 4031 1441 
L 1416 1441 
Q 1456 1047 1700 850 
Q 1944 653 2381 653 
Q 2734 653 3104 758 
Q 3475 863 3866 1075 
L 3866 213 
Q 3469 63 3072 -14 
Q 2675 -91 2278 -91 
Q 1328 -91 801 392 
Q 275 875 275 1747 
Q 275 2603 792 3093 
Q 1309 3584 2216 3584 
Q 3041 3584 3536 3087 
Q 4031 2591 4031 1759 
z
M 2881 2131 
Q 2881 2450 2695 2645 
Q 2509 2841 2209 2841 
Q 1884 2841 1681 2658 
Q 1478 2475 1428 2131 
L 2881 2131 
z
" id="DejaVuSans-Bold-65" transform="scale(0.015625)"/>
      <path d="M 2919 2988 
L 2919 4863 
L 4044 4863 
L 4044 0 
L 2919 0 
L 2919 506 
Q 2688 197 2409 53 
Q 2131 -91 1766 -91 
Q 1119 -91 703 423 
Q 288 938 288 1747 
Q 288 2556 703 3070 
Q 1119 3584 1766 3584 
Q 2128 3584 2408 3439 
Q 2688 3294 2919 2988 
z
M 2181 722 
Q 2541 722 2730 984 
Q 2919 1247 2919 1747 
Q 2919 2247 2730 2509 
Q 2541 2772 2181 2772 
Q 1825 2772 1636 2509 
Q 1447 2247 1447 1747 
Q 1447 1247 1636 984 
Q 1825 722 2181 722 
z
" id="DejaVuSans-Bold-64" transform="scale(0.015625)"/>
      <path d="M 538 3500 
L 1656 3500 
L 1656 0 
L 538 0 
L 538 3500 
z
M 538 4863 
L 1656 4863 
L 1656 3950 
L 538 3950 
L 538 4863 
z
" id="DejaVuSans-Bold-69" transform="scale(0.015625)"/>
      <path d="M 3366 3391 
L 3366 2478 
Q 3138 2634 2908 2709 
Q 2678 2784 2431 2784 
Q 1963 2784 1702 2511 
Q 1441 2238 1441 1747 
Q 1441 1256 1702 982 
Q 1963 709 2431 709 
Q 2694 709 2930 787 
Q 3166 866 3366 1019 
L 3366 103 
Q 3103 6 2833 -42 
Q 2563 -91 2291 -91 
Q 1344 -91 809 395 
Q 275 881 275 1747 
Q 275 2613 809 3098 
Q 1344 3584 2291 3584 
Q 2566 3584 2833 3536 
Q 3100 3488 3366 3391 
z
" id="DejaVuSans-Bold-63" transform="scale(0.015625)"/>
      <path d="M 1759 4494 
L 1759 3500 
L 2913 3500 
L 2913 2700 
L 1759 2700 
L 1759 1216 
Q 1759 972 1856 886 
Q 1953 800 2241 800 
L 2816 800 
L 2816 0 
L 1856 0 
Q 1194 0 917 276 
Q 641 553 641 1216 
L 641 2700 
L 84 2700 
L 84 3500 
L 641 3500 
L 641 4494 
L 1759 4494 
z
" id="DejaVuSans-Bold-74" transform="scale(0.015625)"/>
      <path d="M 2203 2784 
Q 1831 2784 1636 2517 
Q 1441 2250 1441 1747 
Q 1441 1244 1636 976 
Q 1831 709 2203 709 
Q 2569 709 2762 976 
Q 2956 1244 2956 1747 
Q 2956 2250 2762 2517 
Q 2569 2784 2203 2784 
z
M 2203 3584 
Q 3106 3584 3614 3096 
Q 4122 2609 4122 1747 
Q 4122 884 3614 396 
Q 3106 -91 2203 -91 
Q 1297 -91 786 396 
Q 275 884 275 1747 
Q 275 2609 786 3096 
Q 1297 3584 2203 3584 
z
" id="DejaVuSans-Bold-6f" transform="scale(0.015625)"/>
      <path d="M 4056 2131 
L 4056 0 
L 2931 0 
L 2931 347 
L 2931 1631 
Q 2931 2084 2911 2256 
Q 2891 2428 2841 2509 
Q 2775 2619 2662 2680 
Q 2550 2741 2406 2741 
Q 2056 2741 1856 2470 
Q 1656 2200 1656 1722 
L 1656 0 
L 538 0 
L 538 3500 
L 1656 3500 
L 1656 2988 
Q 1909 3294 2193 3439 
Q 2478 3584 2822 3584 
Q 3428 3584 3742 3212 
Q 4056 2841 4056 2131 
z
" id="DejaVuSans-Bold-6e" transform="scale(0.015625)"/>
      <path d="M 3419 850 
L 1538 850 
L 1241 0 
L 31 0 
L 1759 4666 
L 3194 4666 
L 4922 0 
L 3713 0 
L 3419 850 
z
M 1838 1716 
L 3116 1716 
L 2478 3572 
L 1838 1716 
z
" id="DejaVuSans-Bold-41" transform="scale(0.015625)"/>
      <path d="M 2841 4863 
L 2841 4128 
L 2222 4128 
Q 1984 4128 1890 4042 
Q 1797 3956 1797 3744 
L 1797 3500 
L 2753 3500 
L 2753 2700 
L 1797 2700 
L 1797 0 
L 678 0 
L 678 2700 
L 122 2700 
L 122 3500 
L 678 3500 
L 678 3744 
Q 678 4316 997 4589 
Q 1316 4863 1984 4863 
L 2841 4863 
z
" id="DejaVuSans-Bold-66" transform="scale(0.015625)"/>
      <path d="M 1844 884 
L 3897 884 
L 3897 0 
L 506 0 
L 506 884 
L 2209 2388 
Q 2438 2594 2547 2791 
Q 2656 2988 2656 3200 
Q 2656 3528 2436 3728 
Q 2216 3928 1850 3928 
Q 1569 3928 1234 3808 
Q 900 3688 519 3450 
L 519 4475 
Q 925 4609 1322 4679 
Q 1719 4750 2100 4750 
Q 2938 4750 3402 4381 
Q 3866 4013 3866 3353 
Q 3866 2972 3669 2642 
Q 3472 2313 2841 1759 
L 1844 884 
z
" id="DejaVuSans-Bold-32" transform="scale(0.015625)"/>
      <path d="M 588 4666 
L 1791 4666 
L 1791 0 
L 588 0 
L 588 4666 
z
" id="DejaVuSans-Bold-49" transform="scale(0.015625)"/>
      <path d="M 2919 594 
Q 2688 288 2409 144 
Q 2131 0 1766 0 
Q 1125 0 706 504 
Q 288 1009 288 1791 
Q 288 2575 706 3076 
Q 1125 3578 1766 3578 
Q 2131 3578 2409 3434 
Q 2688 3291 2919 2981 
L 2919 3500 
L 4044 3500 
L 4044 353 
Q 4044 -491 3511 -936 
Q 2978 -1381 1966 -1381 
Q 1638 -1381 1331 -1331 
Q 1025 -1281 716 -1178 
L 716 -306 
Q 1009 -475 1290 -558 
Q 1572 -641 1856 -641 
Q 2406 -641 2662 -400 
Q 2919 -159 2919 353 
L 2919 594 
z
M 2181 2772 
Q 1834 2772 1640 2515 
Q 1447 2259 1447 1791 
Q 1447 1309 1634 1061 
Q 1822 813 2181 813 
Q 2531 813 2725 1069 
Q 2919 1325 2919 1791 
Q 2919 2259 2725 2515 
Q 2531 2772 2181 2772 
z
" id="DejaVuSans-Bold-67" transform="scale(0.015625)"/>
     </defs>
     <use xlink:href="#DejaVuSans-Bold-4b"/>
     <use x="77.490234" xlink:href="#DejaVuSans-Bold-4b"/>
     <use x="154.980469" xlink:href="#DejaVuSans-Bold-20"/>
     <use x="189.794922" xlink:href="#DejaVuSans-Bold-76"/>
     <use x="254.980469" xlink:href="#DejaVuSans-Bold-73"/>
     <use x="314.501953" xlink:href="#DejaVuSans-Bold-20"/>
     <use x="349.316406" xlink:href="#DejaVuSans-Bold-4c"/>
     <use x="413.037109" xlink:href="#DejaVuSans-Bold-51"/>
     <use x="498.046875" xlink:href="#DejaVuSans-Bold-2c"/>
     <use x="536.035156" xlink:href="#DejaVuSans-Bold-20"/>
     <use x="570.849609" xlink:href="#DejaVuSans-Bold-50"/>
     <use x="644.140625" xlink:href="#DejaVuSans-Bold-72"/>
     <use x="693.457031" xlink:href="#DejaVuSans-Bold-65"/>
     <use x="761.279297" xlink:href="#DejaVuSans-Bold-64"/>
     <use x="832.861328" xlink:href="#DejaVuSans-Bold-69"/>
     <use x="867.138672" xlink:href="#DejaVuSans-Bold-63"/>
     <use x="926.416016" xlink:href="#DejaVuSans-Bold-74"/>
     <use x="974.21875" xlink:href="#DejaVuSans-Bold-69"/>
     <use x="1008.496094" xlink:href="#DejaVuSans-Bold-6f"/>
     <use x="1077.197266" xlink:href="#DejaVuSans-Bold-6e"/>
     <use x="1148.388672" xlink:href="#DejaVuSans-Bold-20"/>
     <use x="1183.203125" xlink:href="#DejaVuSans-Bold-41"/>
     <use x="1260.595703" xlink:href="#DejaVuSans-Bold-66"/>
     <use x="1304.101562" xlink:href="#DejaVuSans-Bold-74"/>
     <use x="1351.904297" xlink:href="#DejaVuSans-Bold-65"/>
     <use x="1419.726562" xlink:href="#DejaVuSans-Bold-72"/>
     <use x="1469.042969" xlink:href="#DejaVuSans-Bold-20"/>
     <use x="1503.857422" xlink:href="#DejaVuSans-Bold-32"/>
     <use x="1573.4375" xlink:href="#DejaVuSans-Bold-20"/>
     <use x="1608.251953" xlink:href="#DejaVuSans-Bold-6f"/>
     <use x="1676.953125" xlink:href="#DejaVuSans-Bold-76"/>
     <use x="1742.138672" xlink:href="#DejaVuSans-Bold-65"/>
     <use x="1809.960938" xlink:href="#DejaVuSans-Bold-72"/>
     <use x="1859.277344" xlink:href="#DejaVuSans-Bold-73"/>
     <use x="1918.798828" xlink:href="#DejaVuSans-Bold-20"/>
     <use x="1953.613281" xlink:href="#DejaVuSans-Bold-32"/>
     <use x="2023.193359" xlink:href="#DejaVuSans-Bold-6e"/>
     <use x="2094.384766" xlink:href="#DejaVuSans-Bold-64"/>
     <use x="2165.966797" xlink:href="#DejaVuSans-Bold-20"/>
     <use x="2200.78125" xlink:href="#DejaVuSans-Bold-49"/>
     <use x="2237.988281" xlink:href="#DejaVuSans-Bold-6e"/>
     <use x="2309.179688" xlink:href="#DejaVuSans-Bold-6e"/>
     <use x="2380.371094" xlink:href="#DejaVuSans-Bold-69"/>
     <use x="2414.648438" xlink:href="#DejaVuSans-Bold-6e"/>
     <use x="2485.839844" xlink:href="#DejaVuSans-Bold-67"/>
     <use x="2557.421875" xlink:href="#DejaVuSans-Bold-73"/>
    </g>
   </g>
  </g>
 </g>
</svg>
