<?xml version="1.0" encoding="utf-8" standalone="no"?>
<!DOCTYPE svg PUBLIC "-//W3C//DTD SVG 1.1//EN"
  "http://www.w3.org/Graphics/SVG/1.1/DTD/svg11.dtd">
<svg height="576pt" version="1.1" viewBox="0 0 720 576" width="720pt" xmlns="http://www.w3.org/2000/svg" xmlns:xlink="http://www.w3.org/1999/xlink">
 <metadata>
  <rdf:RDF xmlns:cc="http://creativecommons.org/ns#" xmlns:dc="http://purl.org/dc/elements/1.1/" xmlns:rdf="http://www.w3.org/1999/02/22-rdf-syntax-ns#">
   <cc:Work>
    <dc:type rdf:resource="http://purl.org/dc/dcmitype/StillImage"/>
    <dc:date>2021-10-11T13:22:32.973508</dc:date>
    <dc:format>image/svg+xml</dc:format>
    <dc:creator>
     <cc:Agent>
      <dc:title>Matplotlib v3.4.2, https://matplotlib.org/</dc:title>
     </cc:Agent>
    </dc:creator>
   </cc:Work>
  </rdf:RDF>
 </metadata>
 <defs>
  <style type="text/css">*{stroke-linecap:butt;stroke-linejoin:round;}</style>
 </defs>
 <g id="figure_1">
  <g id="patch_1">
   <path d="M 0 576 
L 720 576 
L 720 0 
L 0 0 
z
" style="fill:#ffffff;"/>
  </g>
  <g id="axes_1">
   <g id="patch_2">
    <path d="M 365.45184 117.02016 
C 335.099442 117.02016 305.248872 124.809561 278.766526 139.640387 
C 252.28418 154.471212 230.045742 175.853056 214.186657 201.732729 
C 198.327572 227.612402 189.372247 257.134148 188.180616 287.463145 
C 186.988984 317.792142 193.60045 347.925509 207.380149 374.969695 
C 221.159847 402.01388 241.652128 425.074621 266.889222 441.937512 
C 292.126317 458.800403 321.273718 468.907844 351.532549 471.289269 
C 381.79138 473.670694 412.161081 468.247357 439.725406 455.540034 
C 467.28973 442.832711 491.137216 423.26159 508.977911 398.705988 
L 415.685965 330.9254 
C 409.441722 339.519861 401.095101 346.369753 391.447588 350.817316 
C 381.800074 355.264879 371.170679 357.163047 360.580088 356.329548 
C 349.989497 355.496049 339.787907 351.958445 330.954924 346.056433 
C 322.121941 340.154421 314.949642 332.083162 310.126748 322.617697 
C 305.303854 313.152232 302.989841 302.605554 303.406911 291.990405 
C 303.823982 281.375256 306.958346 271.042645 312.509026 261.984759 
C 318.059706 252.926874 325.843159 245.443228 335.11198 240.252439 
C 344.380801 235.06165 354.828501 232.33536 365.45184 232.33536 
L 365.45184 117.02016 
z
" style="fill:#4c2604;opacity:0.5;stroke:#4c2604;stroke-linejoin:miter;"/>
   </g>
   <g id="patch_3">
    <path d="M 508.977911 398.705988 
C 528.20733 372.238972 539.746151 340.961644 542.312948 308.347459 
C 544.879745 275.733275 538.375849 243.035951 523.523539 213.88664 
C 508.671229 184.737329 486.041441 160.256554 458.147292 143.16299 
C 430.253143 126.069427 398.166907 117.020166 365.451873 117.02016 
L 365.451852 232.33536 
C 376.902114 232.335362 388.132296 235.502603 397.895248 241.485351 
C 407.6582 247.468098 415.578626 256.036369 420.776935 266.238628 
C 425.975243 276.440887 428.251607 287.88495 427.353228 299.299915 
C 426.454849 310.714879 422.416261 321.661944 415.685965 330.9254 
L 508.977911 398.705988 
z
" style="fill:#4c4000;opacity:0.5;stroke:#4c4000;stroke-linejoin:miter;"/>
   </g>
   <g id="patch_4">
    <path d="M 369 113.472 
C 338.647602 113.472 308.797032 121.261401 282.314686 136.092227 
C 255.83234 150.923052 233.593902 172.304896 217.734817 198.184569 
C 201.875732 224.064242 192.920407 253.585988 191.728776 283.914985 
C 190.537144 314.243982 197.14861 344.377349 210.928309 371.421535 
C 224.708007 398.46572 245.200288 421.526461 270.437382 438.389352 
C 295.674477 455.252243 324.821878 465.359684 355.080709 467.741109 
C 385.33954 470.122534 415.709241 464.699197 443.273566 451.991874 
C 470.83789 439.284551 494.685376 419.71343 512.526071 395.157828 
L 419.234125 327.37724 
C 412.989882 335.971701 404.643261 342.821593 394.995748 347.269156 
C 385.348234 351.716719 374.718839 353.614887 364.128248 352.781388 
C 353.537657 351.947889 343.336067 348.410285 334.503084 342.508273 
C 325.670101 336.606261 318.497802 328.535002 313.674908 319.069537 
C 308.852014 309.604072 306.538001 299.057394 306.955071 288.442245 
C 307.372142 277.827096 310.506506 267.494485 316.057186 258.436599 
C 321.607866 249.378714 329.391319 241.895068 338.66014 236.704279 
C 347.928961 231.51349 358.376661 228.7872 369 228.7872 
L 369 113.472 
z
" style="fill:#ff7f0e;"/>
   </g>
   <g id="patch_5">
    <path d="M 512.526071 395.157828 
C 531.75549 368.690812 543.294311 337.413484 545.861108 304.799299 
C 548.427905 272.185115 541.924009 239.487791 527.071699 210.33848 
C 512.219389 181.189169 489.589601 156.708394 461.695452 139.61483 
C 433.801303 122.521267 401.715067 113.472006 369.000033 113.472 
L 369.000012 228.7872 
C 380.450274 228.787202 391.680456 231.954443 401.443408 237.937191 
C 411.20636 243.919938 419.126786 252.488209 424.325095 262.690468 
C 429.523403 272.892727 431.799767 284.33679 430.901388 295.751755 
C 430.003009 307.166719 425.964421 318.113784 419.234125 327.37724 
L 512.526071 395.157828 
z
" style="fill:#ffd700;"/>
   </g>
   <g id="matplotlib.axis_1"/>
   <g id="matplotlib.axis_2"/>
   <g id="text_1">
    <!-- IU -->
    <g transform="translate(178.544264 383.338813)scale(0.14 -0.14)">
     <defs>
      <path d="M 588 4666 
L 1791 4666 
L 1791 0 
L 588 0 
L 588 4666 
z
" id="DejaVuSans-Bold-49" transform="scale(0.015625)"/>
      <path d="M 588 4666 
L 1791 4666 
L 1791 1869 
Q 1791 1291 1980 1042 
Q 2169 794 2597 794 
Q 3028 794 3217 1042 
Q 3406 1291 3406 1869 
L 3406 4666 
L 4609 4666 
L 4609 1869 
Q 4609 878 4112 393 
Q 3616 -91 2597 -91 
Q 1581 -91 1084 393 
Q 588 878 588 1869 
L 588 4666 
z
" id="DejaVuSans-Bold-55" transform="scale(0.015625)"/>
     </defs>
     <use xlink:href="#DejaVuSans-Bold-49"/>
     <use x="37.207031" xlink:href="#DejaVuSans-Bold-55"/>
    </g>
   </g>
   <g id="text_2">
    <!-- 65.0% -->
    <g transform="translate(249.872454 343.068046)scale(0.14 -0.14)">
     <defs>
      <path d="M 2316 2303 
Q 2000 2303 1842 2098 
Q 1684 1894 1684 1484 
Q 1684 1075 1842 870 
Q 2000 666 2316 666 
Q 2634 666 2792 870 
Q 2950 1075 2950 1484 
Q 2950 1894 2792 2098 
Q 2634 2303 2316 2303 
z
M 3803 4544 
L 3803 3681 
Q 3506 3822 3243 3889 
Q 2981 3956 2731 3956 
Q 2194 3956 1894 3657 
Q 1594 3359 1544 2772 
Q 1750 2925 1990 3001 
Q 2231 3078 2516 3078 
Q 3231 3078 3670 2659 
Q 4109 2241 4109 1563 
Q 4109 813 3618 361 
Q 3128 -91 2303 -91 
Q 1394 -91 895 523 
Q 397 1138 397 2266 
Q 397 3422 980 4083 
Q 1563 4744 2578 4744 
Q 2900 4744 3203 4694 
Q 3506 4644 3803 4544 
z
" id="DejaVuSans-Bold-36" transform="scale(0.015625)"/>
      <path d="M 678 4666 
L 3669 4666 
L 3669 3781 
L 1638 3781 
L 1638 3059 
Q 1775 3097 1914 3117 
Q 2053 3138 2203 3138 
Q 3056 3138 3531 2711 
Q 4006 2284 4006 1522 
Q 4006 766 3489 337 
Q 2972 -91 2053 -91 
Q 1656 -91 1267 -14 
Q 878 63 494 219 
L 494 1166 
Q 875 947 1217 837 
Q 1559 728 1863 728 
Q 2300 728 2551 942 
Q 2803 1156 2803 1522 
Q 2803 1891 2551 2103 
Q 2300 2316 1863 2316 
Q 1603 2316 1309 2248 
Q 1016 2181 678 2041 
L 678 4666 
z
" id="DejaVuSans-Bold-35" transform="scale(0.015625)"/>
      <path d="M 653 1209 
L 1778 1209 
L 1778 0 
L 653 0 
L 653 1209 
z
" id="DejaVuSans-Bold-2e" transform="scale(0.015625)"/>
      <path d="M 2944 2338 
Q 2944 3213 2780 3570 
Q 2616 3928 2228 3928 
Q 1841 3928 1675 3570 
Q 1509 3213 1509 2338 
Q 1509 1453 1675 1090 
Q 1841 728 2228 728 
Q 2613 728 2778 1090 
Q 2944 1453 2944 2338 
z
M 4147 2328 
Q 4147 1169 3647 539 
Q 3147 -91 2228 -91 
Q 1306 -91 806 539 
Q 306 1169 306 2328 
Q 306 3491 806 4120 
Q 1306 4750 2228 4750 
Q 3147 4750 3647 4120 
Q 4147 3491 4147 2328 
z
" id="DejaVuSans-Bold-30" transform="scale(0.015625)"/>
      <path d="M 4959 1925 
Q 4738 1925 4616 1733 
Q 4494 1541 4494 1184 
Q 4494 825 4614 633 
Q 4734 441 4959 441 
Q 5184 441 5303 633 
Q 5422 825 5422 1184 
Q 5422 1541 5301 1733 
Q 5181 1925 4959 1925 
z
M 4959 2450 
Q 5541 2450 5875 2112 
Q 6209 1775 6209 1184 
Q 6209 594 5875 251 
Q 5541 -91 4959 -91 
Q 4378 -91 4042 251 
Q 3706 594 3706 1184 
Q 3706 1772 4042 2111 
Q 4378 2450 4959 2450 
z
M 2094 -91 
L 1403 -91 
L 4319 4750 
L 5013 4750 
L 2094 -91 
z
M 1453 4750 
Q 2034 4750 2367 4411 
Q 2700 4072 2700 3481 
Q 2700 2891 2367 2550 
Q 2034 2209 1453 2209 
Q 872 2209 539 2550 
Q 206 2891 206 3481 
Q 206 4072 539 4411 
Q 872 4750 1453 4750 
z
M 1453 4225 
Q 1228 4225 1106 4031 
Q 984 3838 984 3481 
Q 984 3122 1106 2926 
Q 1228 2731 1453 2731 
Q 1678 2731 1798 2926 
Q 1919 3122 1919 3481 
Q 1919 3838 1797 4031 
Q 1675 4225 1453 4225 
z
" id="DejaVuSans-Bold-25" transform="scale(0.015625)"/>
     </defs>
     <use xlink:href="#DejaVuSans-Bold-36"/>
     <use x="69.580078" xlink:href="#DejaVuSans-Bold-35"/>
     <use x="139.160156" xlink:href="#DejaVuSans-Bold-2e"/>
     <use x="177.148438" xlink:href="#DejaVuSans-Bold-30"/>
     <use x="246.728516" xlink:href="#DejaVuSans-Bold-25"/>
    </g>
   </g>
   <g id="text_3">
    <!-- PZ -->
    <g transform="translate(542.878869 206.147453)scale(0.14 -0.14)">
     <defs>
      <path d="M 588 4666 
L 2584 4666 
Q 3475 4666 3951 4270 
Q 4428 3875 4428 3144 
Q 4428 2409 3951 2014 
Q 3475 1619 2584 1619 
L 1791 1619 
L 1791 0 
L 588 0 
L 588 4666 
z
M 1791 3794 
L 1791 2491 
L 2456 2491 
Q 2806 2491 2997 2661 
Q 3188 2831 3188 3144 
Q 3188 3456 2997 3625 
Q 2806 3794 2456 3794 
L 1791 3794 
z
" id="DejaVuSans-Bold-50" transform="scale(0.015625)"/>
      <path d="M 359 4666 
L 4281 4666 
L 4281 3938 
L 1778 909 
L 4353 909 
L 4353 0 
L 288 0 
L 288 728 
L 2791 3756 
L 359 3756 
L 359 4666 
z
" id="DejaVuSans-Bold-5a" transform="scale(0.015625)"/>
     </defs>
     <use xlink:href="#DejaVuSans-Bold-50"/>
     <use x="73.291016" xlink:href="#DejaVuSans-Bold-5a"/>
    </g>
   </g>
   <g id="text_4">
    <!-- 35.0% -->
    <g transform="translate(439.558488 246.418213)scale(0.14 -0.14)">
     <defs>
      <path d="M 2981 2516 
Q 3453 2394 3698 2092 
Q 3944 1791 3944 1325 
Q 3944 631 3412 270 
Q 2881 -91 1863 -91 
Q 1503 -91 1142 -33 
Q 781 25 428 141 
L 428 1069 
Q 766 900 1098 814 
Q 1431 728 1753 728 
Q 2231 728 2486 893 
Q 2741 1059 2741 1369 
Q 2741 1688 2480 1852 
Q 2219 2016 1709 2016 
L 1228 2016 
L 1228 2791 
L 1734 2791 
Q 2188 2791 2409 2933 
Q 2631 3075 2631 3366 
Q 2631 3634 2415 3781 
Q 2200 3928 1806 3928 
Q 1516 3928 1219 3862 
Q 922 3797 628 3669 
L 628 4550 
Q 984 4650 1334 4700 
Q 1684 4750 2022 4750 
Q 2931 4750 3382 4451 
Q 3834 4153 3834 3553 
Q 3834 3144 3618 2883 
Q 3403 2622 2981 2516 
z
" id="DejaVuSans-Bold-33" transform="scale(0.015625)"/>
     </defs>
     <use xlink:href="#DejaVuSans-Bold-33"/>
     <use x="69.580078" xlink:href="#DejaVuSans-Bold-35"/>
     <use x="139.160156" xlink:href="#DejaVuSans-Bold-2e"/>
     <use x="177.148438" xlink:href="#DejaVuSans-Bold-30"/>
     <use x="246.728516" xlink:href="#DejaVuSans-Bold-25"/>
    </g>
   </g>
   <g id="text_5">
    <!-- IU vs PZ, Prediction After 10 overs 2nd Innings -->
    <g transform="translate(157.2425 63.12)scale(0.16 -0.16)">
     <defs>
      <path id="DejaVuSans-Bold-20" transform="scale(0.015625)"/>
      <path d="M 97 3500 
L 1216 3500 
L 2088 1081 
L 2956 3500 
L 4078 3500 
L 2700 0 
L 1472 0 
L 97 3500 
z
" id="DejaVuSans-Bold-76" transform="scale(0.015625)"/>
      <path d="M 3272 3391 
L 3272 2541 
Q 2913 2691 2578 2766 
Q 2244 2841 1947 2841 
Q 1628 2841 1473 2761 
Q 1319 2681 1319 2516 
Q 1319 2381 1436 2309 
Q 1553 2238 1856 2203 
L 2053 2175 
Q 2913 2066 3209 1816 
Q 3506 1566 3506 1031 
Q 3506 472 3093 190 
Q 2681 -91 1863 -91 
Q 1516 -91 1145 -36 
Q 775 19 384 128 
L 384 978 
Q 719 816 1070 734 
Q 1422 653 1784 653 
Q 2113 653 2278 743 
Q 2444 834 2444 1013 
Q 2444 1163 2330 1236 
Q 2216 1309 1875 1350 
L 1678 1375 
Q 931 1469 631 1722 
Q 331 1975 331 2491 
Q 331 3047 712 3315 
Q 1094 3584 1881 3584 
Q 2191 3584 2531 3537 
Q 2872 3491 3272 3391 
z
" id="DejaVuSans-Bold-73" transform="scale(0.015625)"/>
      <path d="M 653 1209 
L 1778 1209 
L 1778 256 
L 1006 -909 
L 341 -909 
L 653 256 
L 653 1209 
z
" id="DejaVuSans-Bold-2c" transform="scale(0.015625)"/>
      <path d="M 3138 2547 
Q 2991 2616 2845 2648 
Q 2700 2681 2553 2681 
Q 2122 2681 1889 2404 
Q 1656 2128 1656 1613 
L 1656 0 
L 538 0 
L 538 3500 
L 1656 3500 
L 1656 2925 
Q 1872 3269 2151 3426 
Q 2431 3584 2822 3584 
Q 2878 3584 2943 3579 
Q 3009 3575 3134 3559 
L 3138 2547 
z
" id="DejaVuSans-Bold-72" transform="scale(0.015625)"/>
      <path d="M 4031 1759 
L 4031 1441 
L 1416 1441 
Q 1456 1047 1700 850 
Q 1944 653 2381 653 
Q 2734 653 3104 758 
Q 3475 863 3866 1075 
L 3866 213 
Q 3469 63 3072 -14 
Q 2675 -91 2278 -91 
Q 1328 -91 801 392 
Q 275 875 275 1747 
Q 275 2603 792 3093 
Q 1309 3584 2216 3584 
Q 3041 3584 3536 3087 
Q 4031 2591 4031 1759 
z
M 2881 2131 
Q 2881 2450 2695 2645 
Q 2509 2841 2209 2841 
Q 1884 2841 1681 2658 
Q 1478 2475 1428 2131 
L 2881 2131 
z
" id="DejaVuSans-Bold-65" transform="scale(0.015625)"/>
      <path d="M 2919 2988 
L 2919 4863 
L 4044 4863 
L 4044 0 
L 2919 0 
L 2919 506 
Q 2688 197 2409 53 
Q 2131 -91 1766 -91 
Q 1119 -91 703 423 
Q 288 938 288 1747 
Q 288 2556 703 3070 
Q 1119 3584 1766 3584 
Q 2128 3584 2408 3439 
Q 2688 3294 2919 2988 
z
M 2181 722 
Q 2541 722 2730 984 
Q 2919 1247 2919 1747 
Q 2919 2247 2730 2509 
Q 2541 2772 2181 2772 
Q 1825 2772 1636 2509 
Q 1447 2247 1447 1747 
Q 1447 1247 1636 984 
Q 1825 722 2181 722 
z
" id="DejaVuSans-Bold-64" transform="scale(0.015625)"/>
      <path d="M 538 3500 
L 1656 3500 
L 1656 0 
L 538 0 
L 538 3500 
z
M 538 4863 
L 1656 4863 
L 1656 3950 
L 538 3950 
L 538 4863 
z
" id="DejaVuSans-Bold-69" transform="scale(0.015625)"/>
      <path d="M 3366 3391 
L 3366 2478 
Q 3138 2634 2908 2709 
Q 2678 2784 2431 2784 
Q 1963 2784 1702 2511 
Q 1441 2238 1441 1747 
Q 1441 1256 1702 982 
Q 1963 709 2431 709 
Q 2694 709 2930 787 
Q 3166 866 3366 1019 
L 3366 103 
Q 3103 6 2833 -42 
Q 2563 -91 2291 -91 
Q 1344 -91 809 395 
Q 275 881 275 1747 
Q 275 2613 809 3098 
Q 1344 3584 2291 3584 
Q 2566 3584 2833 3536 
Q 3100 3488 3366 3391 
z
" id="DejaVuSans-Bold-63" transform="scale(0.015625)"/>
      <path d="M 1759 4494 
L 1759 3500 
L 2913 3500 
L 2913 2700 
L 1759 2700 
L 1759 1216 
Q 1759 972 1856 886 
Q 1953 800 2241 800 
L 2816 800 
L 2816 0 
L 1856 0 
Q 1194 0 917 276 
Q 641 553 641 1216 
L 641 2700 
L 84 2700 
L 84 3500 
L 641 3500 
L 641 4494 
L 1759 4494 
z
" id="DejaVuSans-Bold-74" transform="scale(0.015625)"/>
      <path d="M 2203 2784 
Q 1831 2784 1636 2517 
Q 1441 2250 1441 1747 
Q 1441 1244 1636 976 
Q 1831 709 2203 709 
Q 2569 709 2762 976 
Q 2956 1244 2956 1747 
Q 2956 2250 2762 2517 
Q 2569 2784 2203 2784 
z
M 2203 3584 
Q 3106 3584 3614 3096 
Q 4122 2609 4122 1747 
Q 4122 884 3614 396 
Q 3106 -91 2203 -91 
Q 1297 -91 786 396 
Q 275 884 275 1747 
Q 275 2609 786 3096 
Q 1297 3584 2203 3584 
z
" id="DejaVuSans-Bold-6f" transform="scale(0.015625)"/>
      <path d="M 4056 2131 
L 4056 0 
L 2931 0 
L 2931 347 
L 2931 1631 
Q 2931 2084 2911 2256 
Q 2891 2428 2841 2509 
Q 2775 2619 2662 2680 
Q 2550 2741 2406 2741 
Q 2056 2741 1856 2470 
Q 1656 2200 1656 1722 
L 1656 0 
L 538 0 
L 538 3500 
L 1656 3500 
L 1656 2988 
Q 1909 3294 2193 3439 
Q 2478 3584 2822 3584 
Q 3428 3584 3742 3212 
Q 4056 2841 4056 2131 
z
" id="DejaVuSans-Bold-6e" transform="scale(0.015625)"/>
      <path d="M 3419 850 
L 1538 850 
L 1241 0 
L 31 0 
L 1759 4666 
L 3194 4666 
L 4922 0 
L 3713 0 
L 3419 850 
z
M 1838 1716 
L 3116 1716 
L 2478 3572 
L 1838 1716 
z
" id="DejaVuSans-Bold-41" transform="scale(0.015625)"/>
      <path d="M 2841 4863 
L 2841 4128 
L 2222 4128 
Q 1984 4128 1890 4042 
Q 1797 3956 1797 3744 
L 1797 3500 
L 2753 3500 
L 2753 2700 
L 1797 2700 
L 1797 0 
L 678 0 
L 678 2700 
L 122 2700 
L 122 3500 
L 678 3500 
L 678 3744 
Q 678 4316 997 4589 
Q 1316 4863 1984 4863 
L 2841 4863 
z
" id="DejaVuSans-Bold-66" transform="scale(0.015625)"/>
      <path d="M 750 831 
L 1813 831 
L 1813 3847 
L 722 3622 
L 722 4441 
L 1806 4666 
L 2950 4666 
L 2950 831 
L 4013 831 
L 4013 0 
L 750 0 
L 750 831 
z
" id="DejaVuSans-Bold-31" transform="scale(0.015625)"/>
      <path d="M 1844 884 
L 3897 884 
L 3897 0 
L 506 0 
L 506 884 
L 2209 2388 
Q 2438 2594 2547 2791 
Q 2656 2988 2656 3200 
Q 2656 3528 2436 3728 
Q 2216 3928 1850 3928 
Q 1569 3928 1234 3808 
Q 900 3688 519 3450 
L 519 4475 
Q 925 4609 1322 4679 
Q 1719 4750 2100 4750 
Q 2938 4750 3402 4381 
Q 3866 4013 3866 3353 
Q 3866 2972 3669 2642 
Q 3472 2313 2841 1759 
L 1844 884 
z
" id="DejaVuSans-Bold-32" transform="scale(0.015625)"/>
      <path d="M 2919 594 
Q 2688 288 2409 144 
Q 2131 0 1766 0 
Q 1125 0 706 504 
Q 288 1009 288 1791 
Q 288 2575 706 3076 
Q 1125 3578 1766 3578 
Q 2131 3578 2409 3434 
Q 2688 3291 2919 2981 
L 2919 3500 
L 4044 3500 
L 4044 353 
Q 4044 -491 3511 -936 
Q 2978 -1381 1966 -1381 
Q 1638 -1381 1331 -1331 
Q 1025 -1281 716 -1178 
L 716 -306 
Q 1009 -475 1290 -558 
Q 1572 -641 1856 -641 
Q 2406 -641 2662 -400 
Q 2919 -159 2919 353 
L 2919 594 
z
M 2181 2772 
Q 1834 2772 1640 2515 
Q 1447 2259 1447 1791 
Q 1447 1309 1634 1061 
Q 1822 813 2181 813 
Q 2531 813 2725 1069 
Q 2919 1325 2919 1791 
Q 2919 2259 2725 2515 
Q 2531 2772 2181 2772 
z
" id="DejaVuSans-Bold-67" transform="scale(0.015625)"/>
     </defs>
     <use xlink:href="#DejaVuSans-Bold-49"/>
     <use x="37.207031" xlink:href="#DejaVuSans-Bold-55"/>
     <use x="118.408203" xlink:href="#DejaVuSans-Bold-20"/>
     <use x="153.222656" xlink:href="#DejaVuSans-Bold-76"/>
     <use x="218.408203" xlink:href="#DejaVuSans-Bold-73"/>
     <use x="277.929688" xlink:href="#DejaVuSans-Bold-20"/>
     <use x="312.744141" xlink:href="#DejaVuSans-Bold-50"/>
     <use x="386.035156" xlink:href="#DejaVuSans-Bold-5a"/>
     <use x="458.544922" xlink:href="#DejaVuSans-Bold-2c"/>
     <use x="496.533203" xlink:href="#DejaVuSans-Bold-20"/>
     <use x="531.347656" xlink:href="#DejaVuSans-Bold-50"/>
     <use x="604.638672" xlink:href="#DejaVuSans-Bold-72"/>
     <use x="653.955078" xlink:href="#DejaVuSans-Bold-65"/>
     <use x="721.777344" xlink:href="#DejaVuSans-Bold-64"/>
     <use x="793.359375" xlink:href="#DejaVuSans-Bold-69"/>
     <use x="827.636719" xlink:href="#DejaVuSans-Bold-63"/>
     <use x="886.914062" xlink:href="#DejaVuSans-Bold-74"/>
     <use x="934.716797" xlink:href="#DejaVuSans-Bold-69"/>
     <use x="968.994141" xlink:href="#DejaVuSans-Bold-6f"/>
     <use x="1037.695312" xlink:href="#DejaVuSans-Bold-6e"/>
     <use x="1108.886719" xlink:href="#DejaVuSans-Bold-20"/>
     <use x="1143.701172" xlink:href="#DejaVuSans-Bold-41"/>
     <use x="1221.09375" xlink:href="#DejaVuSans-Bold-66"/>
     <use x="1264.599609" xlink:href="#DejaVuSans-Bold-74"/>
     <use x="1312.402344" xlink:href="#DejaVuSans-Bold-65"/>
     <use x="1380.224609" xlink:href="#DejaVuSans-Bold-72"/>
     <use x="1429.541016" xlink:href="#DejaVuSans-Bold-20"/>
     <use x="1464.355469" xlink:href="#DejaVuSans-Bold-31"/>
     <use x="1533.935547" xlink:href="#DejaVuSans-Bold-30"/>
     <use x="1603.515625" xlink:href="#DejaVuSans-Bold-20"/>
     <use x="1638.330078" xlink:href="#DejaVuSans-Bold-6f"/>
     <use x="1707.03125" xlink:href="#DejaVuSans-Bold-76"/>
     <use x="1772.216797" xlink:href="#DejaVuSans-Bold-65"/>
     <use x="1840.039062" xlink:href="#DejaVuSans-Bold-72"/>
     <use x="1889.355469" xlink:href="#DejaVuSans-Bold-73"/>
     <use x="1948.876953" xlink:href="#DejaVuSans-Bold-20"/>
     <use x="1983.691406" xlink:href="#DejaVuSans-Bold-32"/>
     <use x="2053.271484" xlink:href="#DejaVuSans-Bold-6e"/>
     <use x="2124.462891" xlink:href="#DejaVuSans-Bold-64"/>
     <use x="2196.044922" xlink:href="#DejaVuSans-Bold-20"/>
     <use x="2230.859375" xlink:href="#DejaVuSans-Bold-49"/>
     <use x="2268.066406" xlink:href="#DejaVuSans-Bold-6e"/>
     <use x="2339.257812" xlink:href="#DejaVuSans-Bold-6e"/>
     <use x="2410.449219" xlink:href="#DejaVuSans-Bold-69"/>
     <use x="2444.726562" xlink:href="#DejaVuSans-Bold-6e"/>
     <use x="2515.917969" xlink:href="#DejaVuSans-Bold-67"/>
     <use x="2587.5" xlink:href="#DejaVuSans-Bold-73"/>
    </g>
   </g>
  </g>
 </g>
</svg>
