<?xml version="1.0" encoding="utf-8" standalone="no"?>
<!DOCTYPE svg PUBLIC "-//W3C//DTD SVG 1.1//EN"
  "http://www.w3.org/Graphics/SVG/1.1/DTD/svg11.dtd">
<svg height="576pt" version="1.1" viewBox="0 0 720 576" width="720pt" xmlns="http://www.w3.org/2000/svg" xmlns:xlink="http://www.w3.org/1999/xlink">
 <metadata>
  <rdf:RDF xmlns:cc="http://creativecommons.org/ns#" xmlns:dc="http://purl.org/dc/elements/1.1/" xmlns:rdf="http://www.w3.org/1999/02/22-rdf-syntax-ns#">
   <cc:Work>
    <dc:type rdf:resource="http://purl.org/dc/dcmitype/StillImage"/>
    <dc:date>2021-06-17T21:55:28.249881</dc:date>
    <dc:format>image/svg+xml</dc:format>
    <dc:creator>
     <cc:Agent>
      <dc:title>Matplotlib v3.4.2, https://matplotlib.org/</dc:title>
     </cc:Agent>
    </dc:creator>
   </cc:Work>
  </rdf:RDF>
 </metadata>
 <defs>
  <style type="text/css">*{stroke-linecap:butt;stroke-linejoin:round;}</style>
 </defs>
 <g id="figure_1">
  <g id="patch_1">
   <path d="M 0 576 
L 720 576 
L 720 0 
L 0 0 
z
" style="fill:#ffffff;"/>
  </g>
  <g id="axes_1">
   <g id="patch_2">
    <path d="M 365.45184 117.02016 
C 331.79006 117.02016 298.813457 126.600749 270.391877 144.637634 
C 241.970296 162.674518 219.260766 188.433425 204.928279 218.891515 
C 190.595791 249.349605 185.223815 283.266944 189.442757 316.66329 
C 193.661699 350.059637 207.299808 381.575442 228.756637 407.512287 
C 250.213465 433.449133 278.615516 452.751142 310.629772 463.153201 
C 342.644029 473.555259 376.967206 474.633904 409.571439 466.262556 
C 442.175671 457.891207 471.733655 440.410658 494.776725 415.872273 
C 517.819796 391.333887 533.40988 360.736611 539.717463 327.671073 
L 426.444808 306.06318 
C 424.237154 317.636118 418.780624 328.345165 410.71555 336.933599 
C 402.650475 345.522034 392.305181 351.640226 380.8937 354.570198 
C 369.482218 357.50017 357.469106 357.122645 346.264116 353.481924 
C 335.059126 349.841204 325.118409 343.085501 317.608519 334.007605 
C 310.098629 324.929709 305.32529 313.899177 303.848661 302.210456 
C 302.372031 290.521734 304.252223 278.650666 309.268594 267.990334 
C 314.284964 257.330003 322.2333 248.314385 332.180853 242.001476 
C 342.128406 235.688566 353.670217 232.33536 365.45184 232.33536 
L 365.45184 117.02016 
z
" style="fill:#092436;opacity:0.5;stroke:#092436;stroke-linejoin:miter;"/>
   </g>
   <g id="patch_3">
    <path d="M 539.717463 327.671073 
C 544.610684 302.019881 543.78046 275.601878 537.286233 250.308553 
C 530.792007 225.015229 518.792559 201.464997 502.147033 181.34402 
C 485.501507 161.223043 464.61688 145.023272 440.988463 133.904588 
C 417.360045 122.785904 391.565544 117.020155 365.451807 117.02016 
L 365.451828 232.33536 
C 374.591636 232.335358 383.619712 234.35337 391.889658 238.24491 
C 400.159604 242.136449 407.469223 247.806369 413.295157 254.848711 
C 419.121092 261.891053 423.320898 270.133634 425.593878 278.986298 
C 427.866857 287.838961 428.157436 297.085262 426.444808 306.06318 
L 539.717463 327.671073 
z
" style="fill:#4c4000;opacity:0.5;stroke:#4c4000;stroke-linejoin:miter;"/>
   </g>
   <g id="patch_4">
    <path d="M 369 113.472 
C 335.33822 113.472 302.361617 123.052589 273.940037 141.089474 
C 245.518456 159.126358 222.808926 184.885265 208.476439 215.343355 
C 194.143951 245.801445 188.771975 279.718784 192.990917 313.11513 
C 197.209859 346.511477 210.847968 378.027282 232.304797 403.964127 
C 253.761625 429.900973 282.163676 449.202982 314.177932 459.605041 
C 346.192189 470.007099 380.515366 471.085744 413.119599 462.714396 
C 445.723831 454.343047 475.281815 436.862498 498.324885 412.324113 
C 521.367956 387.785727 536.95804 357.188451 543.265623 324.122913 
L 429.992968 302.51502 
C 427.785314 314.087958 422.328784 324.797005 414.26371 333.385439 
C 406.198635 341.973874 395.853341 348.092066 384.44186 351.022038 
C 373.030378 353.95201 361.017266 353.574485 349.812276 349.933764 
C 338.607286 346.293044 328.666569 339.537341 321.156679 330.459445 
C 313.646789 321.381549 308.87345 310.351017 307.396821 298.662296 
C 305.920191 286.973574 307.800383 275.102506 312.816754 264.442174 
C 317.833124 253.781843 325.78146 244.766225 335.729013 238.453316 
C 345.676566 232.140406 357.218377 228.7872 369 228.7872 
L 369 113.472 
z
" style="fill:#1f77b4;"/>
   </g>
   <g id="patch_5">
    <path d="M 543.265623 324.122913 
C 548.158844 298.471721 547.32862 272.053718 540.834393 246.760393 
C 534.340167 221.467069 522.340719 197.916837 505.695193 177.79586 
C 489.049667 157.674883 468.16504 141.475112 444.536623 130.356428 
C 420.908205 119.237744 395.113704 113.471995 368.999967 113.472 
L 368.999988 228.7872 
C 378.139796 228.787198 387.167872 230.80521 395.437818 234.69675 
C 403.707764 238.588289 411.017383 244.258209 416.843317 251.300551 
C 422.669252 258.342893 426.869058 266.585474 429.142038 275.438138 
C 431.415017 284.290801 431.705596 293.537102 429.992968 302.51502 
L 543.265623 324.122913 
z
" style="fill:#ffd700;"/>
   </g>
   <g id="matplotlib.axis_1"/>
   <g id="matplotlib.axis_2"/>
   <g id="text_1">
    <!-- KK -->
    <g transform="translate(196.939651 419.135665)scale(0.14 -0.14)">
     <defs>
      <path d="M 588 4666 
L 1791 4666 
L 1791 2963 
L 3525 4666 
L 4922 4666 
L 2675 2456 
L 5153 0 
L 3647 0 
L 1791 1838 
L 1791 0 
L 588 0 
L 588 4666 
z
" id="DejaVuSans-Bold-4b" transform="scale(0.015625)"/>
     </defs>
     <use xlink:href="#DejaVuSans-Bold-4b"/>
     <use x="77.490234" xlink:href="#DejaVuSans-Bold-4b"/>
    </g>
   </g>
   <g id="text_2">
    <!-- 72.0% -->
    <g transform="translate(262.698347 362.593601)scale(0.14 -0.14)">
     <defs>
      <path d="M 428 4666 
L 3944 4666 
L 3944 3988 
L 2125 0 
L 953 0 
L 2675 3781 
L 428 3781 
L 428 4666 
z
" id="DejaVuSans-Bold-37" transform="scale(0.015625)"/>
      <path d="M 1844 884 
L 3897 884 
L 3897 0 
L 506 0 
L 506 884 
L 2209 2388 
Q 2438 2594 2547 2791 
Q 2656 2988 2656 3200 
Q 2656 3528 2436 3728 
Q 2216 3928 1850 3928 
Q 1569 3928 1234 3808 
Q 900 3688 519 3450 
L 519 4475 
Q 925 4609 1322 4679 
Q 1719 4750 2100 4750 
Q 2938 4750 3402 4381 
Q 3866 4013 3866 3353 
Q 3866 2972 3669 2642 
Q 3472 2313 2841 1759 
L 1844 884 
z
" id="DejaVuSans-Bold-32" transform="scale(0.015625)"/>
      <path d="M 653 1209 
L 1778 1209 
L 1778 0 
L 653 0 
L 653 1209 
z
" id="DejaVuSans-Bold-2e" transform="scale(0.015625)"/>
      <path d="M 2944 2338 
Q 2944 3213 2780 3570 
Q 2616 3928 2228 3928 
Q 1841 3928 1675 3570 
Q 1509 3213 1509 2338 
Q 1509 1453 1675 1090 
Q 1841 728 2228 728 
Q 2613 728 2778 1090 
Q 2944 1453 2944 2338 
z
M 4147 2328 
Q 4147 1169 3647 539 
Q 3147 -91 2228 -91 
Q 1306 -91 806 539 
Q 306 1169 306 2328 
Q 306 3491 806 4120 
Q 1306 4750 2228 4750 
Q 3147 4750 3647 4120 
Q 4147 3491 4147 2328 
z
" id="DejaVuSans-Bold-30" transform="scale(0.015625)"/>
      <path d="M 4959 1925 
Q 4738 1925 4616 1733 
Q 4494 1541 4494 1184 
Q 4494 825 4614 633 
Q 4734 441 4959 441 
Q 5184 441 5303 633 
Q 5422 825 5422 1184 
Q 5422 1541 5301 1733 
Q 5181 1925 4959 1925 
z
M 4959 2450 
Q 5541 2450 5875 2112 
Q 6209 1775 6209 1184 
Q 6209 594 5875 251 
Q 5541 -91 4959 -91 
Q 4378 -91 4042 251 
Q 3706 594 3706 1184 
Q 3706 1772 4042 2111 
Q 4378 2450 4959 2450 
z
M 2094 -91 
L 1403 -91 
L 4319 4750 
L 5013 4750 
L 2094 -91 
z
M 1453 4750 
Q 2034 4750 2367 4411 
Q 2700 4072 2700 3481 
Q 2700 2891 2367 2550 
Q 2034 2209 1453 2209 
Q 872 2209 539 2550 
Q 206 2891 206 3481 
Q 206 4072 539 4411 
Q 872 4750 1453 4750 
z
M 1453 4225 
Q 1228 4225 1106 4031 
Q 984 3838 984 3481 
Q 984 3122 1106 2926 
Q 1228 2731 1453 2731 
Q 1678 2731 1798 2926 
Q 1919 3122 1919 3481 
Q 1919 3838 1797 4031 
Q 1675 4225 1453 4225 
z
" id="DejaVuSans-Bold-25" transform="scale(0.015625)"/>
     </defs>
     <use xlink:href="#DejaVuSans-Bold-37"/>
     <use x="69.580078" xlink:href="#DejaVuSans-Bold-32"/>
     <use x="139.160156" xlink:href="#DejaVuSans-Bold-2e"/>
     <use x="177.148438" xlink:href="#DejaVuSans-Bold-30"/>
     <use x="246.728516" xlink:href="#DejaVuSans-Bold-25"/>
    </g>
   </g>
   <g id="text_3">
    <!-- PZ -->
    <g transform="translate(519.364712 170.350571)scale(0.14 -0.14)">
     <defs>
      <path d="M 588 4666 
L 2584 4666 
Q 3475 4666 3951 4270 
Q 4428 3875 4428 3144 
Q 4428 2409 3951 2014 
Q 3475 1619 2584 1619 
L 1791 1619 
L 1791 0 
L 588 0 
L 588 4666 
z
M 1791 3794 
L 1791 2491 
L 2456 2491 
Q 2806 2491 2997 2661 
Q 3188 2831 3188 3144 
Q 3188 3456 2997 3625 
Q 2806 3794 2456 3794 
L 1791 3794 
z
" id="DejaVuSans-Bold-50" transform="scale(0.015625)"/>
      <path d="M 359 4666 
L 4281 4666 
L 4281 3938 
L 1778 909 
L 4353 909 
L 4353 0 
L 288 0 
L 288 728 
L 2791 3756 
L 359 3756 
L 359 4666 
z
" id="DejaVuSans-Bold-5a" transform="scale(0.015625)"/>
     </defs>
     <use xlink:href="#DejaVuSans-Bold-50"/>
     <use x="73.291016" xlink:href="#DejaVuSans-Bold-5a"/>
    </g>
   </g>
   <g id="text_4">
    <!-- 28.0% -->
    <g transform="translate(426.732584 226.892641)scale(0.14 -0.14)">
     <defs>
      <path d="M 2228 2088 
Q 1891 2088 1709 1903 
Q 1528 1719 1528 1375 
Q 1528 1031 1709 848 
Q 1891 666 2228 666 
Q 2563 666 2741 848 
Q 2919 1031 2919 1375 
Q 2919 1722 2741 1905 
Q 2563 2088 2228 2088 
z
M 1350 2484 
Q 925 2613 709 2878 
Q 494 3144 494 3541 
Q 494 4131 934 4440 
Q 1375 4750 2228 4750 
Q 3075 4750 3515 4442 
Q 3956 4134 3956 3541 
Q 3956 3144 3739 2878 
Q 3522 2613 3097 2484 
Q 3572 2353 3814 2058 
Q 4056 1763 4056 1313 
Q 4056 619 3595 264 
Q 3134 -91 2228 -91 
Q 1319 -91 855 264 
Q 391 619 391 1313 
Q 391 1763 633 2058 
Q 875 2353 1350 2484 
z
M 1631 3419 
Q 1631 3141 1786 2991 
Q 1941 2841 2228 2841 
Q 2509 2841 2662 2991 
Q 2816 3141 2816 3419 
Q 2816 3697 2662 3845 
Q 2509 3994 2228 3994 
Q 1941 3994 1786 3844 
Q 1631 3694 1631 3419 
z
" id="DejaVuSans-Bold-38" transform="scale(0.015625)"/>
     </defs>
     <use xlink:href="#DejaVuSans-Bold-32"/>
     <use x="69.580078" xlink:href="#DejaVuSans-Bold-38"/>
     <use x="139.160156" xlink:href="#DejaVuSans-Bold-2e"/>
     <use x="177.148438" xlink:href="#DejaVuSans-Bold-30"/>
     <use x="246.728516" xlink:href="#DejaVuSans-Bold-25"/>
    </g>
   </g>
   <g id="text_5">
    <!-- KK vs PZ, Prediction After 15 overs 2nd Innings -->
    <g transform="translate(154.3175 63.12)scale(0.16 -0.16)">
     <defs>
      <path id="DejaVuSans-Bold-20" transform="scale(0.015625)"/>
      <path d="M 97 3500 
L 1216 3500 
L 2088 1081 
L 2956 3500 
L 4078 3500 
L 2700 0 
L 1472 0 
L 97 3500 
z
" id="DejaVuSans-Bold-76" transform="scale(0.015625)"/>
      <path d="M 3272 3391 
L 3272 2541 
Q 2913 2691 2578 2766 
Q 2244 2841 1947 2841 
Q 1628 2841 1473 2761 
Q 1319 2681 1319 2516 
Q 1319 2381 1436 2309 
Q 1553 2238 1856 2203 
L 2053 2175 
Q 2913 2066 3209 1816 
Q 3506 1566 3506 1031 
Q 3506 472 3093 190 
Q 2681 -91 1863 -91 
Q 1516 -91 1145 -36 
Q 775 19 384 128 
L 384 978 
Q 719 816 1070 734 
Q 1422 653 1784 653 
Q 2113 653 2278 743 
Q 2444 834 2444 1013 
Q 2444 1163 2330 1236 
Q 2216 1309 1875 1350 
L 1678 1375 
Q 931 1469 631 1722 
Q 331 1975 331 2491 
Q 331 3047 712 3315 
Q 1094 3584 1881 3584 
Q 2191 3584 2531 3537 
Q 2872 3491 3272 3391 
z
" id="DejaVuSans-Bold-73" transform="scale(0.015625)"/>
      <path d="M 653 1209 
L 1778 1209 
L 1778 256 
L 1006 -909 
L 341 -909 
L 653 256 
L 653 1209 
z
" id="DejaVuSans-Bold-2c" transform="scale(0.015625)"/>
      <path d="M 3138 2547 
Q 2991 2616 2845 2648 
Q 2700 2681 2553 2681 
Q 2122 2681 1889 2404 
Q 1656 2128 1656 1613 
L 1656 0 
L 538 0 
L 538 3500 
L 1656 3500 
L 1656 2925 
Q 1872 3269 2151 3426 
Q 2431 3584 2822 3584 
Q 2878 3584 2943 3579 
Q 3009 3575 3134 3559 
L 3138 2547 
z
" id="DejaVuSans-Bold-72" transform="scale(0.015625)"/>
      <path d="M 4031 1759 
L 4031 1441 
L 1416 1441 
Q 1456 1047 1700 850 
Q 1944 653 2381 653 
Q 2734 653 3104 758 
Q 3475 863 3866 1075 
L 3866 213 
Q 3469 63 3072 -14 
Q 2675 -91 2278 -91 
Q 1328 -91 801 392 
Q 275 875 275 1747 
Q 275 2603 792 3093 
Q 1309 3584 2216 3584 
Q 3041 3584 3536 3087 
Q 4031 2591 4031 1759 
z
M 2881 2131 
Q 2881 2450 2695 2645 
Q 2509 2841 2209 2841 
Q 1884 2841 1681 2658 
Q 1478 2475 1428 2131 
L 2881 2131 
z
" id="DejaVuSans-Bold-65" transform="scale(0.015625)"/>
      <path d="M 2919 2988 
L 2919 4863 
L 4044 4863 
L 4044 0 
L 2919 0 
L 2919 506 
Q 2688 197 2409 53 
Q 2131 -91 1766 -91 
Q 1119 -91 703 423 
Q 288 938 288 1747 
Q 288 2556 703 3070 
Q 1119 3584 1766 3584 
Q 2128 3584 2408 3439 
Q 2688 3294 2919 2988 
z
M 2181 722 
Q 2541 722 2730 984 
Q 2919 1247 2919 1747 
Q 2919 2247 2730 2509 
Q 2541 2772 2181 2772 
Q 1825 2772 1636 2509 
Q 1447 2247 1447 1747 
Q 1447 1247 1636 984 
Q 1825 722 2181 722 
z
" id="DejaVuSans-Bold-64" transform="scale(0.015625)"/>
      <path d="M 538 3500 
L 1656 3500 
L 1656 0 
L 538 0 
L 538 3500 
z
M 538 4863 
L 1656 4863 
L 1656 3950 
L 538 3950 
L 538 4863 
z
" id="DejaVuSans-Bold-69" transform="scale(0.015625)"/>
      <path d="M 3366 3391 
L 3366 2478 
Q 3138 2634 2908 2709 
Q 2678 2784 2431 2784 
Q 1963 2784 1702 2511 
Q 1441 2238 1441 1747 
Q 1441 1256 1702 982 
Q 1963 709 2431 709 
Q 2694 709 2930 787 
Q 3166 866 3366 1019 
L 3366 103 
Q 3103 6 2833 -42 
Q 2563 -91 2291 -91 
Q 1344 -91 809 395 
Q 275 881 275 1747 
Q 275 2613 809 3098 
Q 1344 3584 2291 3584 
Q 2566 3584 2833 3536 
Q 3100 3488 3366 3391 
z
" id="DejaVuSans-Bold-63" transform="scale(0.015625)"/>
      <path d="M 1759 4494 
L 1759 3500 
L 2913 3500 
L 2913 2700 
L 1759 2700 
L 1759 1216 
Q 1759 972 1856 886 
Q 1953 800 2241 800 
L 2816 800 
L 2816 0 
L 1856 0 
Q 1194 0 917 276 
Q 641 553 641 1216 
L 641 2700 
L 84 2700 
L 84 3500 
L 641 3500 
L 641 4494 
L 1759 4494 
z
" id="DejaVuSans-Bold-74" transform="scale(0.015625)"/>
      <path d="M 2203 2784 
Q 1831 2784 1636 2517 
Q 1441 2250 1441 1747 
Q 1441 1244 1636 976 
Q 1831 709 2203 709 
Q 2569 709 2762 976 
Q 2956 1244 2956 1747 
Q 2956 2250 2762 2517 
Q 2569 2784 2203 2784 
z
M 2203 3584 
Q 3106 3584 3614 3096 
Q 4122 2609 4122 1747 
Q 4122 884 3614 396 
Q 3106 -91 2203 -91 
Q 1297 -91 786 396 
Q 275 884 275 1747 
Q 275 2609 786 3096 
Q 1297 3584 2203 3584 
z
" id="DejaVuSans-Bold-6f" transform="scale(0.015625)"/>
      <path d="M 4056 2131 
L 4056 0 
L 2931 0 
L 2931 347 
L 2931 1631 
Q 2931 2084 2911 2256 
Q 2891 2428 2841 2509 
Q 2775 2619 2662 2680 
Q 2550 2741 2406 2741 
Q 2056 2741 1856 2470 
Q 1656 2200 1656 1722 
L 1656 0 
L 538 0 
L 538 3500 
L 1656 3500 
L 1656 2988 
Q 1909 3294 2193 3439 
Q 2478 3584 2822 3584 
Q 3428 3584 3742 3212 
Q 4056 2841 4056 2131 
z
" id="DejaVuSans-Bold-6e" transform="scale(0.015625)"/>
      <path d="M 3419 850 
L 1538 850 
L 1241 0 
L 31 0 
L 1759 4666 
L 3194 4666 
L 4922 0 
L 3713 0 
L 3419 850 
z
M 1838 1716 
L 3116 1716 
L 2478 3572 
L 1838 1716 
z
" id="DejaVuSans-Bold-41" transform="scale(0.015625)"/>
      <path d="M 2841 4863 
L 2841 4128 
L 2222 4128 
Q 1984 4128 1890 4042 
Q 1797 3956 1797 3744 
L 1797 3500 
L 2753 3500 
L 2753 2700 
L 1797 2700 
L 1797 0 
L 678 0 
L 678 2700 
L 122 2700 
L 122 3500 
L 678 3500 
L 678 3744 
Q 678 4316 997 4589 
Q 1316 4863 1984 4863 
L 2841 4863 
z
" id="DejaVuSans-Bold-66" transform="scale(0.015625)"/>
      <path d="M 750 831 
L 1813 831 
L 1813 3847 
L 722 3622 
L 722 4441 
L 1806 4666 
L 2950 4666 
L 2950 831 
L 4013 831 
L 4013 0 
L 750 0 
L 750 831 
z
" id="DejaVuSans-Bold-31" transform="scale(0.015625)"/>
      <path d="M 678 4666 
L 3669 4666 
L 3669 3781 
L 1638 3781 
L 1638 3059 
Q 1775 3097 1914 3117 
Q 2053 3138 2203 3138 
Q 3056 3138 3531 2711 
Q 4006 2284 4006 1522 
Q 4006 766 3489 337 
Q 2972 -91 2053 -91 
Q 1656 -91 1267 -14 
Q 878 63 494 219 
L 494 1166 
Q 875 947 1217 837 
Q 1559 728 1863 728 
Q 2300 728 2551 942 
Q 2803 1156 2803 1522 
Q 2803 1891 2551 2103 
Q 2300 2316 1863 2316 
Q 1603 2316 1309 2248 
Q 1016 2181 678 2041 
L 678 4666 
z
" id="DejaVuSans-Bold-35" transform="scale(0.015625)"/>
      <path d="M 588 4666 
L 1791 4666 
L 1791 0 
L 588 0 
L 588 4666 
z
" id="DejaVuSans-Bold-49" transform="scale(0.015625)"/>
      <path d="M 2919 594 
Q 2688 288 2409 144 
Q 2131 0 1766 0 
Q 1125 0 706 504 
Q 288 1009 288 1791 
Q 288 2575 706 3076 
Q 1125 3578 1766 3578 
Q 2131 3578 2409 3434 
Q 2688 3291 2919 2981 
L 2919 3500 
L 4044 3500 
L 4044 353 
Q 4044 -491 3511 -936 
Q 2978 -1381 1966 -1381 
Q 1638 -1381 1331 -1331 
Q 1025 -1281 716 -1178 
L 716 -306 
Q 1009 -475 1290 -558 
Q 1572 -641 1856 -641 
Q 2406 -641 2662 -400 
Q 2919 -159 2919 353 
L 2919 594 
z
M 2181 2772 
Q 1834 2772 1640 2515 
Q 1447 2259 1447 1791 
Q 1447 1309 1634 1061 
Q 1822 813 2181 813 
Q 2531 813 2725 1069 
Q 2919 1325 2919 1791 
Q 2919 2259 2725 2515 
Q 2531 2772 2181 2772 
z
" id="DejaVuSans-Bold-67" transform="scale(0.015625)"/>
     </defs>
     <use xlink:href="#DejaVuSans-Bold-4b"/>
     <use x="77.490234" xlink:href="#DejaVuSans-Bold-4b"/>
     <use x="154.980469" xlink:href="#DejaVuSans-Bold-20"/>
     <use x="189.794922" xlink:href="#DejaVuSans-Bold-76"/>
     <use x="254.980469" xlink:href="#DejaVuSans-Bold-73"/>
     <use x="314.501953" xlink:href="#DejaVuSans-Bold-20"/>
     <use x="349.316406" xlink:href="#DejaVuSans-Bold-50"/>
     <use x="422.607422" xlink:href="#DejaVuSans-Bold-5a"/>
     <use x="495.117188" xlink:href="#DejaVuSans-Bold-2c"/>
     <use x="533.105469" xlink:href="#DejaVuSans-Bold-20"/>
     <use x="567.919922" xlink:href="#DejaVuSans-Bold-50"/>
     <use x="641.210938" xlink:href="#DejaVuSans-Bold-72"/>
     <use x="690.527344" xlink:href="#DejaVuSans-Bold-65"/>
     <use x="758.349609" xlink:href="#DejaVuSans-Bold-64"/>
     <use x="829.931641" xlink:href="#DejaVuSans-Bold-69"/>
     <use x="864.208984" xlink:href="#DejaVuSans-Bold-63"/>
     <use x="923.486328" xlink:href="#DejaVuSans-Bold-74"/>
     <use x="971.289062" xlink:href="#DejaVuSans-Bold-69"/>
     <use x="1005.566406" xlink:href="#DejaVuSans-Bold-6f"/>
     <use x="1074.267578" xlink:href="#DejaVuSans-Bold-6e"/>
     <use x="1145.458984" xlink:href="#DejaVuSans-Bold-20"/>
     <use x="1180.273438" xlink:href="#DejaVuSans-Bold-41"/>
     <use x="1257.666016" xlink:href="#DejaVuSans-Bold-66"/>
     <use x="1301.171875" xlink:href="#DejaVuSans-Bold-74"/>
     <use x="1348.974609" xlink:href="#DejaVuSans-Bold-65"/>
     <use x="1416.796875" xlink:href="#DejaVuSans-Bold-72"/>
     <use x="1466.113281" xlink:href="#DejaVuSans-Bold-20"/>
     <use x="1500.927734" xlink:href="#DejaVuSans-Bold-31"/>
     <use x="1570.507812" xlink:href="#DejaVuSans-Bold-35"/>
     <use x="1640.087891" xlink:href="#DejaVuSans-Bold-20"/>
     <use x="1674.902344" xlink:href="#DejaVuSans-Bold-6f"/>
     <use x="1743.603516" xlink:href="#DejaVuSans-Bold-76"/>
     <use x="1808.789062" xlink:href="#DejaVuSans-Bold-65"/>
     <use x="1876.611328" xlink:href="#DejaVuSans-Bold-72"/>
     <use x="1925.927734" xlink:href="#DejaVuSans-Bold-73"/>
     <use x="1985.449219" xlink:href="#DejaVuSans-Bold-20"/>
     <use x="2020.263672" xlink:href="#DejaVuSans-Bold-32"/>
     <use x="2089.84375" xlink:href="#DejaVuSans-Bold-6e"/>
     <use x="2161.035156" xlink:href="#DejaVuSans-Bold-64"/>
     <use x="2232.617188" xlink:href="#DejaVuSans-Bold-20"/>
     <use x="2267.431641" xlink:href="#DejaVuSans-Bold-49"/>
     <use x="2304.638672" xlink:href="#DejaVuSans-Bold-6e"/>
     <use x="2375.830078" xlink:href="#DejaVuSans-Bold-6e"/>
     <use x="2447.021484" xlink:href="#DejaVuSans-Bold-69"/>
     <use x="2481.298828" xlink:href="#DejaVuSans-Bold-6e"/>
     <use x="2552.490234" xlink:href="#DejaVuSans-Bold-67"/>
     <use x="2624.072266" xlink:href="#DejaVuSans-Bold-73"/>
    </g>
   </g>
  </g>
 </g>
</svg>
